<svg xmlns="http://www.w3.org/2000/svg" xmlns:xlink="http://www.w3.org/1999/xlink" width="100" zoomAndPan="magnify" viewBox="0 0 75 34.499999" height="46" preserveAspectRatio="xMidYMid meet" version="1.0"><defs><g/><clipPath id="95698541ee"><path d="M 45 2 L 69 2 L 69 26 L 45 26 Z M 45 2 " clip-rule="nonzero"/></clipPath><clipPath id="5e65e1ea9f"><path d="M 48.742188 0 L 70.214844 13.0625 L 59.460938 30.75 L 37.984375 17.6875 Z M 48.742188 0 " clip-rule="nonzero"/></clipPath><clipPath id="a57293ef4f"><path d="M 48.742188 0 L 70.214844 13.0625 L 59.460938 30.75 L 37.984375 17.6875 Z M 48.742188 0 " clip-rule="nonzero"/></clipPath><clipPath id="d5f94ad170"><path d="M 59 17 L 68 17 L 68 26 L 59 26 Z M 59 17 " clip-rule="nonzero"/></clipPath><clipPath id="93112757d7"><path d="M 62.066406 15.84375 L 69.53125 24.046875 L 64.066406 29.023438 L 56.601562 20.824219 Z M 62.066406 15.84375 " clip-rule="nonzero"/></clipPath><clipPath id="5b82729f29"><path d="M 62.066406 15.84375 L 69.53125 24.046875 L 64.066406 29.023438 L 56.601562 20.824219 Z M 62.066406 15.84375 " clip-rule="nonzero"/></clipPath><clipPath id="993132ecfd"><path d="M 53 20 L 60 20 L 60 27 L 53 27 Z M 53 20 " clip-rule="nonzero"/></clipPath><clipPath id="39e61cb84b"><path d="M 57.953125 19.089844 L 60.464844 26.824219 L 54.839844 28.648438 L 52.328125 20.914062 Z M 57.953125 19.089844 " clip-rule="nonzero"/></clipPath><clipPath id="a1c68bce93"><path d="M 57.953125 19.089844 L 60.464844 26.824219 L 54.839844 28.648438 L 52.328125 20.914062 Z M 57.953125 19.089844 " clip-rule="nonzero"/></clipPath></defs><g clip-path="url(#95698541ee)"><g clip-path="url(#5e65e1ea9f)"><g clip-path="url(#a57293ef4f)"><path fill="#bf5283" d="M 50.386719 24.773438 C 50.324219 24.679688 50.285156 24.578125 50.265625 24.46875 C 50.15625 23.894531 50.015625 23.488281 49.511719 22.316406 C 48.410156 19.730469 47.695312 17.894531 47.371094 16.800781 C 46.832031 14.980469 46.636719 13.144531 46.808594 11.515625 C 46.964844 10.007812 47.542969 8.554688 48.316406 7.726562 C 49.066406 6.917969 50.097656 6.613281 51.128906 6.894531 C 51.953125 7.128906 52.636719 7.578125 53.179688 8.246094 C 53.941406 9.179688 54.46875 10.5625 54.882812 12.714844 C 55.113281 13.90625 55.136719 14.039062 55.132812 14.070312 C 55.117188 14.152344 55.1875 14.121094 55.386719 13.96875 C 56.054688 13.445312 57.097656 12.894531 58.113281 12.527344 C 59.34375 12.082031 60.453125 11.921875 61.574219 12.019531 C 62.484375 12.101562 62.960938 12.253906 63.566406 12.65625 C 64.003906 12.945312 64.230469 13.164062 64.445312 13.511719 C 65.0625 14.496094 65.023438 15.785156 64.335938 17.222656 C 63.683594 18.585938 62.230469 19.9375 60.179688 21.085938 C 58.957031 21.769531 57.851562 22.28125 55.992188 23.015625 C 55.492188 23.214844 54.75 23.507812 54.351562 23.667969 C 53.363281 24.058594 52.457031 24.484375 51.933594 24.800781 C 51.457031 25.09375 51.222656 25.171875 51.003906 25.109375 C 50.800781 25.050781 50.476562 24.875 50.386719 24.773438 Z M 51.53125 23.550781 C 52.007812 23.253906 53.171875 22.742188 55.113281 21.984375 C 57.039062 21.230469 58.074219 20.769531 59.179688 20.171875 C 61.652344 18.839844 63.015625 17.492188 63.472656 15.921875 C 63.601562 15.476562 63.628906 15.089844 63.558594 14.730469 C 63.460938 14.234375 63.265625 13.964844 62.804688 13.683594 C 62.472656 13.480469 62.121094 13.371094 61.621094 13.308594 C 60.441406 13.160156 59.066406 13.433594 57.660156 14.101562 C 56.824219 14.496094 56.308594 14.835938 55.691406 15.394531 C 55.269531 15.777344 55.164062 15.839844 54.894531 15.875 C 54.546875 15.917969 54.28125 15.777344 54.148438 15.480469 C 54.066406 15.207031 54 14.933594 53.953125 14.65625 L 53.714844 13.433594 C 53.265625 11.078125 52.921875 10.054688 52.292969 9.199219 C 51.726562 8.421875 50.820312 7.964844 50.117188 8.097656 C 49.542969 8.207031 49.050781 8.691406 48.660156 9.527344 C 47.8125 11.332031 47.816406 13.921875 48.667969 16.644531 C 48.941406 17.53125 49.230469 18.289062 50.007812 20.171875 C 50.300781 20.882812 50.613281 21.65625 50.707031 21.894531 C 50.894531 22.390625 51.21875 23.351562 51.253906 23.53125 C 51.261719 23.578125 51.277344 23.625 51.300781 23.664062 C 51.382812 23.640625 51.460938 23.601562 51.53125 23.550781 Z M 46.042969 7.035156 C 45.804688 6.789062 45.386719 6.277344 45.335938 6.171875 C 45.222656 5.9375 45.359375 5.574219 45.605469 5.464844 C 45.945312 5.308594 46.121094 5.394531 46.671875 5.984375 C 47.097656 6.4375 47.183594 6.554688 47.195312 6.722656 C 47.214844 6.964844 47.121094 7.152344 46.914062 7.277344 C 46.703125 7.402344 46.496094 7.398438 46.292969 7.265625 C 46.203125 7.195312 46.121094 7.117188 46.042969 7.035156 Z M 65.660156 17.578125 C 65.53125 17.453125 65.476562 17.304688 65.488281 17.128906 C 65.5 16.949219 65.578125 16.808594 65.722656 16.707031 C 65.902344 16.578125 66.09375 16.582031 66.453125 16.730469 C 66.660156 16.820312 66.863281 16.921875 67.0625 17.03125 C 67.3125 17.179688 67.355469 17.21875 67.398438 17.316406 C 67.578125 17.765625 67.277344 18.152344 66.773438 18.113281 C 66.578125 18.097656 65.796875 17.722656 65.660156 17.578125 Z M 48.40625 5.003906 C 48.246094 4.800781 48.054688 4.097656 48.058594 3.738281 C 48.066406 3.257812 48.359375 3.003906 48.777344 3.113281 C 49.027344 3.179688 49.101562 3.289062 49.210938 3.742188 C 49.261719 3.96875 49.347656 4.277344 49.394531 4.429688 C 49.496094 4.757812 49.472656 4.949219 49.308594 5.117188 C 49.140625 5.296875 48.808594 5.339844 48.609375 5.214844 C 48.53125 5.152344 48.464844 5.082031 48.40625 5.003906 Z M 65.996094 15.09375 C 65.785156 14.816406 65.882812 14.429688 66.203125 14.257812 C 66.382812 14.160156 66.957031 14.09375 67.355469 14.125 C 67.519531 14.125 67.671875 14.171875 67.804688 14.265625 C 67.960938 14.359375 68.015625 14.410156 68.050781 14.5 C 68.132812 14.675781 68.128906 14.851562 68.035156 15.023438 C 67.886719 15.261719 67.6875 15.328125 67.195312 15.296875 C 67.015625 15.285156 66.839844 15.285156 66.664062 15.300781 C 66.328125 15.335938 66.132812 15.277344 65.996094 15.09375 Z M 50.453125 4.902344 C 50.351562 4.738281 50.304688 4.320312 50.320312 3.757812 C 50.335938 3.285156 50.457031 3.050781 50.734375 2.960938 C 50.820312 2.929688 50.910156 2.921875 51 2.9375 C 51.089844 2.949219 51.171875 2.984375 51.246094 3.039062 C 51.320312 3.09375 51.375 3.160156 51.417969 3.242188 C 51.457031 3.328125 51.476562 3.414062 51.472656 3.503906 C 51.472656 3.59375 51.488281 3.875 51.503906 4.132812 C 51.519531 4.328125 51.519531 4.527344 51.503906 4.722656 C 51.472656 4.867188 51.398438 4.984375 51.28125 5.070312 C 51.160156 5.15625 51.027344 5.191406 50.882812 5.179688 C 50.6875 5.167969 50.542969 5.078125 50.453125 4.902344 Z M 64.8125 12.820312 C 64.710938 12.59375 64.71875 12.472656 64.855469 12.253906 C 64.988281 12.035156 65.179688 11.886719 66.011719 11.359375 C 66.433594 11.089844 66.625 11.023438 66.796875 11.085938 C 66.847656 11.101562 66.910156 11.121094 66.9375 11.128906 C 67.101562 11.167969 67.289062 11.535156 67.253906 11.75 C 67.21875 11.988281 67.058594 12.136719 66.5 12.464844 C 66.210938 12.628906 65.878906 12.839844 65.757812 12.929688 C 65.664062 13 65.5625 13.0625 65.457031 13.113281 C 65.328125 13.144531 65.203125 13.128906 65.085938 13.074219 C 64.964844 13.023438 64.875 12.9375 64.8125 12.820312 Z M 64.8125 12.820312 " fill-opacity="1" fill-rule="nonzero"/></g></g></g><g clip-path="url(#d5f94ad170)"><g clip-path="url(#93112757d7)"><g clip-path="url(#5b82729f29)"><path fill="#ff5757" d="M 67.402344 23.085938 C 67.519531 21.917969 66.652344 20.882812 65.480469 20.839844 C 64.878906 20.816406 64.316406 21.046875 63.894531 21.429688 C 64.316406 21.046875 64.597656 20.503906 64.628906 19.90625 C 64.695312 18.734375 63.746094 17.773438 62.574219 17.785156 C 59.914062 17.804688 58.921875 21.289062 59.898438 24.59375 C 59.96875 24.832031 60.140625 25.019531 60.371094 25.113281 C 63.570312 26.394531 67.128906 25.734375 67.402344 23.085938 Z M 67.402344 23.085938 " fill-opacity="1" fill-rule="nonzero"/></g></g></g><g clip-path="url(#993132ecfd)"><g clip-path="url(#39e61cb84b)"><g clip-path="url(#a1c68bce93)"><path fill="#104d7d" d="M 59.402344 25.863281 C 59.855469 25.082031 59.574219 24.082031 58.765625 23.679688 C 58.351562 23.472656 57.882812 23.453125 57.464844 23.589844 C 57.882812 23.453125 58.25 23.164062 58.464844 22.753906 C 58.882812 21.949219 58.523438 20.976562 57.695312 20.609375 C 55.820312 19.78125 54.019531 21.910156 53.65625 24.542969 C 53.628906 24.730469 53.691406 24.917969 53.820312 25.054688 C 55.660156 26.972656 58.371094 27.636719 59.402344 25.863281 Z M 59.402344 25.863281 " fill-opacity="1" fill-rule="nonzero"/></g></g></g><g fill="#bf5283" fill-opacity="1"><g transform="translate(10.654283, 25.895875)"><g><path d="M 2.609375 -0.59375 C 2.816406 -0.625 3.242188 -0.710938 3.890625 -0.859375 L 4.765625 -1.03125 C 4.859375 -0.9375 4.9375 -0.847656 5 -0.765625 C 5.070312 -0.691406 5.109375 -0.628906 5.109375 -0.578125 C 5.109375 -0.515625 5.078125 -0.453125 5.015625 -0.390625 C 4.960938 -0.335938 4.84375 -0.242188 4.65625 -0.109375 C 4.632812 -0.0859375 4.609375 -0.0546875 4.578125 -0.015625 C 4.554688 0.015625 4.53125 0.0351562 4.5 0.046875 L 4.1875 0.125 C 3.9375 0.195312 3.707031 0.253906 3.5 0.296875 C 3.300781 0.335938 3.097656 0.359375 2.890625 0.359375 C 2.171875 0.359375 1.578125 0.144531 1.109375 -0.28125 C 0.941406 -0.4375 0.804688 -0.597656 0.703125 -0.765625 C 0.609375 -0.929688 0.5625 -1.109375 0.5625 -1.296875 C 0.5625 -1.378906 0.566406 -1.441406 0.578125 -1.484375 C 0.703125 -2.222656 0.835938 -2.859375 0.984375 -3.390625 C 1.148438 -3.960938 1.441406 -4.9375 1.859375 -6.3125 C 1.941406 -6.632812 2.082031 -7.125 2.28125 -7.78125 C 2.332031 -7.957031 2.40625 -8.078125 2.5 -8.140625 C 2.59375 -8.210938 2.734375 -8.238281 2.921875 -8.21875 C 2.953125 -8.21875 2.984375 -8.210938 3.015625 -8.203125 C 3.054688 -8.203125 3.097656 -8.203125 3.140625 -8.203125 C 3.609375 -8.160156 3.84375 -7.929688 3.84375 -7.515625 C 3.84375 -7.410156 3.828125 -7.300781 3.796875 -7.1875 C 3.734375 -6.945312 3.617188 -6.625 3.453125 -6.21875 C 2.835938 -4.65625 2.363281 -3.148438 2.03125 -1.703125 C 1.988281 -1.523438 1.96875 -1.335938 1.96875 -1.140625 C 1.96875 -0.765625 2.128906 -0.578125 2.453125 -0.578125 C 2.523438 -0.578125 2.578125 -0.582031 2.609375 -0.59375 Z M 2.609375 -0.59375 "/></g></g></g><g fill="#bf5283" fill-opacity="1"><g transform="translate(15.878984, 25.895875)"><g><path d="M 3.0625 -0.765625 C 2.820312 -0.617188 2.550781 -0.546875 2.25 -0.546875 C 1.914062 -0.546875 1.59375 -0.628906 1.28125 -0.796875 C 0.976562 -0.972656 0.734375 -1.21875 0.546875 -1.53125 C 0.367188 -1.851562 0.296875 -2.21875 0.328125 -2.625 L 0.390625 -2.890625 C 0.429688 -3.171875 0.46875 -3.375 0.5 -3.5 C 0.570312 -3.78125 0.707031 -3.976562 0.90625 -4.09375 C 1.113281 -4.207031 1.390625 -4.296875 1.734375 -4.359375 C 1.953125 -4.410156 2.164062 -4.4375 2.375 -4.4375 C 3.039062 -4.4375 3.601562 -4.210938 4.0625 -3.765625 C 4.300781 -3.515625 4.421875 -3.21875 4.421875 -2.875 C 4.421875 -2.53125 4.296875 -2.160156 4.046875 -1.765625 C 3.753906 -1.328125 3.425781 -0.992188 3.0625 -0.765625 Z M 2.09375 -3.84375 C 1.976562 -3.550781 1.851562 -3.1875 1.71875 -2.75 L 1.609375 -2.40625 L 1.6875 -2.375 C 1.6875 -2.320312 1.6875 -2.238281 1.6875 -2.125 C 1.6875 -2.019531 1.703125 -1.929688 1.734375 -1.859375 C 1.816406 -1.617188 1.910156 -1.472656 2.015625 -1.421875 C 2.054688 -1.398438 2.117188 -1.410156 2.203125 -1.453125 C 2.296875 -1.492188 2.375 -1.546875 2.4375 -1.609375 C 2.539062 -1.703125 2.710938 -1.894531 2.953125 -2.1875 C 3.128906 -2.375 3.21875 -2.609375 3.21875 -2.890625 C 3.21875 -3.117188 3.148438 -3.328125 3.015625 -3.515625 C 2.878906 -3.710938 2.695312 -3.84375 2.46875 -3.90625 C 2.445312 -3.914062 2.40625 -3.921875 2.34375 -3.921875 C 2.195312 -3.921875 2.113281 -3.894531 2.09375 -3.84375 Z M 2.09375 -3.84375 "/></g></g></g><g fill="#bf5283" fill-opacity="1"><g transform="translate(20.274539, 25.895875)"><g><path d="M 3.3125 -0.90625 C 3.082031 -0.664062 2.832031 -0.546875 2.5625 -0.546875 C 2.34375 -0.546875 2.113281 -0.617188 1.875 -0.765625 L 1.84375 0.265625 C 1.800781 1.023438 1.78125 1.6875 1.78125 2.25 C 1.78125 2.351562 1.789062 2.519531 1.8125 2.75 C 1.820312 2.976562 1.828125 3.144531 1.828125 3.25 C 1.828125 3.363281 1.820312 3.445312 1.8125 3.5 C 1.8125 3.5625 1.769531 3.632812 1.6875 3.71875 C 1.601562 3.800781 1.519531 3.851562 1.4375 3.875 C 1.375 3.882812 1.332031 3.890625 1.3125 3.890625 C 1.132812 3.890625 0.960938 3.8125 0.796875 3.65625 C 0.640625 3.507812 0.5625 3.351562 0.5625 3.1875 C 0.582031 2.625 0.613281 1.804688 0.65625 0.734375 L 0.734375 -1.75 C 0.753906 -2.207031 0.726562 -2.585938 0.65625 -2.890625 C 0.644531 -2.984375 0.640625 -3.046875 0.640625 -3.078125 C 0.640625 -3.203125 0.675781 -3.296875 0.75 -3.359375 C 0.820312 -3.429688 0.914062 -3.472656 1.03125 -3.484375 C 1.21875 -3.503906 1.367188 -3.554688 1.484375 -3.640625 C 1.597656 -3.722656 1.734375 -3.863281 1.890625 -4.0625 C 2.160156 -4.394531 2.457031 -4.5625 2.78125 -4.5625 C 3.144531 -4.5625 3.554688 -4.335938 4.015625 -3.890625 C 4.234375 -3.691406 4.34375 -3.414062 4.34375 -3.0625 C 4.34375 -2.9375 4.332031 -2.8125 4.3125 -2.6875 C 4.25 -2.363281 4.132812 -2.066406 3.96875 -1.796875 C 3.800781 -1.523438 3.582031 -1.226562 3.3125 -0.90625 Z M 2.25 -2.8125 C 2.082031 -2.351562 2 -1.945312 2 -1.59375 C 2 -1.507812 2.003906 -1.445312 2.015625 -1.40625 L 2.140625 -1.34375 C 2.296875 -1.382812 2.457031 -1.515625 2.625 -1.734375 C 2.789062 -1.953125 2.925781 -2.195312 3.03125 -2.46875 C 3.144531 -2.75 3.203125 -3 3.203125 -3.21875 C 3.203125 -3.300781 3.179688 -3.390625 3.140625 -3.484375 C 3.085938 -3.585938 3.007812 -3.640625 2.90625 -3.640625 C 2.769531 -3.640625 2.671875 -3.585938 2.609375 -3.484375 C 2.585938 -3.453125 2.535156 -3.367188 2.453125 -3.234375 C 2.367188 -3.097656 2.300781 -2.957031 2.25 -2.8125 Z M 2.25 -2.8125 "/></g></g></g><g fill="#bf5283" fill-opacity="1"><g transform="translate(24.840468, 25.895875)"><g><path d="M 2.640625 -1.765625 C 2.554688 -1.722656 2.445312 -1.703125 2.3125 -1.703125 C 2.25 -1.703125 2.179688 -1.707031 2.109375 -1.71875 C 2.035156 -1.726562 1.972656 -1.726562 1.921875 -1.71875 C 1.984375 -1.46875 2.125 -1.265625 2.34375 -1.109375 C 2.570312 -0.953125 2.828125 -0.875 3.109375 -0.875 C 3.347656 -0.875 3.566406 -0.925781 3.765625 -1.03125 C 4.046875 -1.175781 4.285156 -1.347656 4.484375 -1.546875 C 4.628906 -1.691406 4.765625 -1.765625 4.890625 -1.765625 C 4.972656 -1.765625 5.046875 -1.722656 5.109375 -1.640625 C 5.171875 -1.535156 5.203125 -1.410156 5.203125 -1.265625 C 5.203125 -1.117188 5.171875 -1.003906 5.109375 -0.921875 C 4.910156 -0.617188 4.65625 -0.410156 4.34375 -0.296875 C 4.03125 -0.179688 3.664062 -0.125 3.25 -0.125 C 2.8125 -0.125 2.390625 -0.21875 1.984375 -0.40625 C 1.585938 -0.59375 1.25 -0.851562 0.96875 -1.1875 C 0.6875 -1.519531 0.5 -1.882812 0.40625 -2.28125 C 0.34375 -2.519531 0.3125 -2.75 0.3125 -2.96875 C 0.3125 -3.332031 0.410156 -3.625 0.609375 -3.84375 C 0.816406 -4.0625 1.144531 -4.269531 1.59375 -4.46875 C 2 -4.632812 2.375 -4.71875 2.71875 -4.71875 C 2.96875 -4.71875 3.210938 -4.679688 3.453125 -4.609375 C 4.179688 -4.378906 4.546875 -4.070312 4.546875 -3.6875 C 4.546875 -3.4375 4.394531 -3.128906 4.09375 -2.765625 C 3.957031 -2.597656 3.789062 -2.453125 3.59375 -2.328125 C 3.394531 -2.203125 3.203125 -2.085938 3.015625 -1.984375 C 2.828125 -1.878906 2.703125 -1.804688 2.640625 -1.765625 Z M 3.109375 -3.875 C 3.097656 -3.914062 3.066406 -3.945312 3.015625 -3.96875 C 2.972656 -4 2.945312 -4.015625 2.9375 -4.015625 C 2.738281 -4.035156 2.53125 -3.976562 2.3125 -3.84375 C 2.101562 -3.707031 1.925781 -3.535156 1.78125 -3.328125 C 1.644531 -3.128906 1.578125 -2.9375 1.578125 -2.75 L 1.59375 -2.65625 C 1.601562 -2.625 1.640625 -2.582031 1.703125 -2.53125 C 1.773438 -2.488281 1.820312 -2.476562 1.84375 -2.5 C 2.375 -2.894531 2.78125 -3.21875 3.0625 -3.46875 C 3.101562 -3.507812 3.125 -3.59375 3.125 -3.71875 C 3.125 -3.789062 3.117188 -3.84375 3.109375 -3.875 Z M 3.109375 -3.875 "/></g></g></g><g fill="#bf5283" fill-opacity="1"><g transform="translate(29.815291, 25.895875)"><g><path d="M 1.875 -0.515625 C 2.019531 -0.703125 2.128906 -0.847656 2.203125 -0.953125 C 2.285156 -1.066406 2.375 -1.125 2.46875 -1.125 C 2.550781 -1.125 2.617188 -1.066406 2.671875 -0.953125 C 2.773438 -0.648438 2.828125 -0.410156 2.828125 -0.234375 C 2.828125 -0.160156 2.820312 -0.101562 2.8125 -0.0625 C 2.78125 0.0820312 2.691406 0.1875 2.546875 0.25 C 2.410156 0.3125 2.25 0.332031 2.0625 0.3125 C 2 0.3125 1.882812 0.3125 1.71875 0.3125 C 1.5625 0.3125 1.421875 0.289062 1.296875 0.25 C 1.179688 0.207031 1.078125 0.128906 0.984375 0.015625 C 0.785156 -0.210938 0.6875 -0.4375 0.6875 -0.65625 C 0.6875 -2.425781 0.679688 -3.757812 0.671875 -4.65625 L 0.65625 -6.65625 C 0.65625 -6.914062 0.628906 -7.160156 0.578125 -7.390625 C 0.566406 -7.421875 0.5625 -7.460938 0.5625 -7.515625 C 0.5625 -7.796875 0.753906 -7.9375 1.140625 -7.9375 C 1.390625 -7.9375 1.597656 -7.851562 1.765625 -7.6875 C 1.929688 -7.53125 2.007812 -7.316406 2 -7.046875 C 1.976562 -6.648438 1.945312 -6.050781 1.90625 -5.25 L 1.84375 -3.890625 C 1.78125 -2.597656 1.738281 -1.628906 1.71875 -0.984375 C 1.707031 -0.910156 1.707031 -0.828125 1.71875 -0.734375 C 1.738281 -0.648438 1.753906 -0.59375 1.765625 -0.5625 Z M 1.875 -0.515625 "/></g></g></g><g fill="#bf5283" fill-opacity="1"><g transform="translate(32.541194, 25.895875)"><g><path d="M 3.0625 -0.765625 C 2.820312 -0.617188 2.550781 -0.546875 2.25 -0.546875 C 1.914062 -0.546875 1.59375 -0.628906 1.28125 -0.796875 C 0.976562 -0.972656 0.734375 -1.21875 0.546875 -1.53125 C 0.367188 -1.851562 0.296875 -2.21875 0.328125 -2.625 L 0.390625 -2.890625 C 0.429688 -3.171875 0.46875 -3.375 0.5 -3.5 C 0.570312 -3.78125 0.707031 -3.976562 0.90625 -4.09375 C 1.113281 -4.207031 1.390625 -4.296875 1.734375 -4.359375 C 1.953125 -4.410156 2.164062 -4.4375 2.375 -4.4375 C 3.039062 -4.4375 3.601562 -4.210938 4.0625 -3.765625 C 4.300781 -3.515625 4.421875 -3.21875 4.421875 -2.875 C 4.421875 -2.53125 4.296875 -2.160156 4.046875 -1.765625 C 3.753906 -1.328125 3.425781 -0.992188 3.0625 -0.765625 Z M 2.09375 -3.84375 C 1.976562 -3.550781 1.851562 -3.1875 1.71875 -2.75 L 1.609375 -2.40625 L 1.6875 -2.375 C 1.6875 -2.320312 1.6875 -2.238281 1.6875 -2.125 C 1.6875 -2.019531 1.703125 -1.929688 1.734375 -1.859375 C 1.816406 -1.617188 1.910156 -1.472656 2.015625 -1.421875 C 2.054688 -1.398438 2.117188 -1.410156 2.203125 -1.453125 C 2.296875 -1.492188 2.375 -1.546875 2.4375 -1.609375 C 2.539062 -1.703125 2.710938 -1.894531 2.953125 -2.1875 C 3.128906 -2.375 3.21875 -2.609375 3.21875 -2.890625 C 3.21875 -3.117188 3.148438 -3.328125 3.015625 -3.515625 C 2.878906 -3.710938 2.695312 -3.84375 2.46875 -3.90625 C 2.445312 -3.914062 2.40625 -3.921875 2.34375 -3.921875 C 2.195312 -3.921875 2.113281 -3.894531 2.09375 -3.84375 Z M 2.09375 -3.84375 "/></g></g></g><g fill="#bf5283" fill-opacity="1"><g transform="translate(36.93675, 25.895875)"><g><path d="M 3.3125 -0.90625 C 3.082031 -0.664062 2.832031 -0.546875 2.5625 -0.546875 C 2.34375 -0.546875 2.113281 -0.617188 1.875 -0.765625 L 1.84375 0.265625 C 1.800781 1.023438 1.78125 1.6875 1.78125 2.25 C 1.78125 2.351562 1.789062 2.519531 1.8125 2.75 C 1.820312 2.976562 1.828125 3.144531 1.828125 3.25 C 1.828125 3.363281 1.820312 3.445312 1.8125 3.5 C 1.8125 3.5625 1.769531 3.632812 1.6875 3.71875 C 1.601562 3.800781 1.519531 3.851562 1.4375 3.875 C 1.375 3.882812 1.332031 3.890625 1.3125 3.890625 C 1.132812 3.890625 0.960938 3.8125 0.796875 3.65625 C 0.640625 3.507812 0.5625 3.351562 0.5625 3.1875 C 0.582031 2.625 0.613281 1.804688 0.65625 0.734375 L 0.734375 -1.75 C 0.753906 -2.207031 0.726562 -2.585938 0.65625 -2.890625 C 0.644531 -2.984375 0.640625 -3.046875 0.640625 -3.078125 C 0.640625 -3.203125 0.675781 -3.296875 0.75 -3.359375 C 0.820312 -3.429688 0.914062 -3.472656 1.03125 -3.484375 C 1.21875 -3.503906 1.367188 -3.554688 1.484375 -3.640625 C 1.597656 -3.722656 1.734375 -3.863281 1.890625 -4.0625 C 2.160156 -4.394531 2.457031 -4.5625 2.78125 -4.5625 C 3.144531 -4.5625 3.554688 -4.335938 4.015625 -3.890625 C 4.234375 -3.691406 4.34375 -3.414062 4.34375 -3.0625 C 4.34375 -2.9375 4.332031 -2.8125 4.3125 -2.6875 C 4.25 -2.363281 4.132812 -2.066406 3.96875 -1.796875 C 3.800781 -1.523438 3.582031 -1.226562 3.3125 -0.90625 Z M 2.25 -2.8125 C 2.082031 -2.351562 2 -1.945312 2 -1.59375 C 2 -1.507812 2.003906 -1.445312 2.015625 -1.40625 L 2.140625 -1.34375 C 2.296875 -1.382812 2.457031 -1.515625 2.625 -1.734375 C 2.789062 -1.953125 2.925781 -2.195312 3.03125 -2.46875 C 3.144531 -2.75 3.203125 -3 3.203125 -3.21875 C 3.203125 -3.300781 3.179688 -3.390625 3.140625 -3.484375 C 3.085938 -3.585938 3.007812 -3.640625 2.90625 -3.640625 C 2.769531 -3.640625 2.671875 -3.585938 2.609375 -3.484375 C 2.585938 -3.453125 2.535156 -3.367188 2.453125 -3.234375 C 2.367188 -3.097656 2.300781 -2.957031 2.25 -2.8125 Z M 2.25 -2.8125 "/></g></g></g><g fill="#bf5283" fill-opacity="1"><g transform="translate(41.502678, 25.895875)"><g><path d="M 2.640625 -1.765625 C 2.554688 -1.722656 2.445312 -1.703125 2.3125 -1.703125 C 2.25 -1.703125 2.179688 -1.707031 2.109375 -1.71875 C 2.035156 -1.726562 1.972656 -1.726562 1.921875 -1.71875 C 1.984375 -1.46875 2.125 -1.265625 2.34375 -1.109375 C 2.570312 -0.953125 2.828125 -0.875 3.109375 -0.875 C 3.347656 -0.875 3.566406 -0.925781 3.765625 -1.03125 C 4.046875 -1.175781 4.285156 -1.347656 4.484375 -1.546875 C 4.628906 -1.691406 4.765625 -1.765625 4.890625 -1.765625 C 4.972656 -1.765625 5.046875 -1.722656 5.109375 -1.640625 C 5.171875 -1.535156 5.203125 -1.410156 5.203125 -1.265625 C 5.203125 -1.117188 5.171875 -1.003906 5.109375 -0.921875 C 4.910156 -0.617188 4.65625 -0.410156 4.34375 -0.296875 C 4.03125 -0.179688 3.664062 -0.125 3.25 -0.125 C 2.8125 -0.125 2.390625 -0.21875 1.984375 -0.40625 C 1.585938 -0.59375 1.25 -0.851562 0.96875 -1.1875 C 0.6875 -1.519531 0.5 -1.882812 0.40625 -2.28125 C 0.34375 -2.519531 0.3125 -2.75 0.3125 -2.96875 C 0.3125 -3.332031 0.410156 -3.625 0.609375 -3.84375 C 0.816406 -4.0625 1.144531 -4.269531 1.59375 -4.46875 C 2 -4.632812 2.375 -4.71875 2.71875 -4.71875 C 2.96875 -4.71875 3.210938 -4.679688 3.453125 -4.609375 C 4.179688 -4.378906 4.546875 -4.070312 4.546875 -3.6875 C 4.546875 -3.4375 4.394531 -3.128906 4.09375 -2.765625 C 3.957031 -2.597656 3.789062 -2.453125 3.59375 -2.328125 C 3.394531 -2.203125 3.203125 -2.085938 3.015625 -1.984375 C 2.828125 -1.878906 2.703125 -1.804688 2.640625 -1.765625 Z M 3.109375 -3.875 C 3.097656 -3.914062 3.066406 -3.945312 3.015625 -3.96875 C 2.972656 -4 2.945312 -4.015625 2.9375 -4.015625 C 2.738281 -4.035156 2.53125 -3.976562 2.3125 -3.84375 C 2.101562 -3.707031 1.925781 -3.535156 1.78125 -3.328125 C 1.644531 -3.128906 1.578125 -2.9375 1.578125 -2.75 L 1.59375 -2.65625 C 1.601562 -2.625 1.640625 -2.582031 1.703125 -2.53125 C 1.773438 -2.488281 1.820312 -2.476562 1.84375 -2.5 C 2.375 -2.894531 2.78125 -3.21875 3.0625 -3.46875 C 3.101562 -3.507812 3.125 -3.59375 3.125 -3.71875 C 3.125 -3.789062 3.117188 -3.84375 3.109375 -3.875 Z M 3.109375 -3.875 "/></g></g></g><g fill="#104d7d" fill-opacity="1"><g transform="translate(41.827183, 29.635789)"><g><path d="M 1.578125 0 L 1.328125 0 C 1.285156 0 1.257812 -0.00390625 1.25 -0.015625 C 1.238281 -0.0351562 1.234375 -0.0507812 1.234375 -0.0625 C 1.234375 -0.0820312 1.234375 -0.101562 1.234375 -0.125 L 1.25 -0.28125 C 1.207031 -0.195312 1.140625 -0.125 1.046875 -0.0625 C 0.953125 -0.0078125 0.847656 0.015625 0.734375 0.015625 C 0.566406 0.015625 0.4375 -0.0351562 0.34375 -0.140625 C 0.25 -0.253906 0.203125 -0.398438 0.203125 -0.578125 C 0.203125 -0.816406 0.269531 -1.015625 0.40625 -1.171875 C 0.550781 -1.328125 0.726562 -1.40625 0.9375 -1.40625 C 1.050781 -1.40625 1.144531 -1.378906 1.21875 -1.328125 C 1.289062 -1.273438 1.335938 -1.207031 1.359375 -1.125 C 1.359375 -1.164062 1.363281 -1.195312 1.375 -1.21875 L 1.453125 -1.828125 L 1.296875 -1.828125 C 1.273438 -1.828125 1.265625 -1.835938 1.265625 -1.859375 L 1.28125 -1.984375 C 1.28125 -2.003906 1.296875 -2.015625 1.328125 -2.015625 L 1.671875 -2.015625 C 1.691406 -2.015625 1.703125 -2.003906 1.703125 -1.984375 L 1.453125 -0.1875 L 1.609375 -0.1875 C 1.628906 -0.1875 1.640625 -0.175781 1.640625 -0.15625 L 1.625 -0.03125 C 1.613281 -0.0078125 1.597656 0 1.578125 0 Z M 0.796875 -0.171875 C 0.941406 -0.171875 1.0625 -0.226562 1.15625 -0.34375 C 1.257812 -0.457031 1.3125 -0.601562 1.3125 -0.78125 C 1.3125 -0.914062 1.273438 -1.019531 1.203125 -1.09375 C 1.140625 -1.164062 1.050781 -1.203125 0.9375 -1.203125 C 0.800781 -1.203125 0.679688 -1.144531 0.578125 -1.03125 C 0.484375 -0.925781 0.4375 -0.785156 0.4375 -0.609375 C 0.4375 -0.484375 0.46875 -0.378906 0.53125 -0.296875 C 0.59375 -0.210938 0.679688 -0.171875 0.796875 -0.171875 Z M 0.796875 -0.171875 "/></g></g></g><g fill="#104d7d" fill-opacity="1"><g transform="translate(43.781645, 29.635789)"><g><path d="M 1.484375 0 L 1.25 0 C 1.175781 0 1.140625 -0.03125 1.140625 -0.09375 C 1.140625 -0.09375 1.140625 -0.101562 1.140625 -0.125 L 1.15625 -0.265625 C 0.988281 -0.078125 0.789062 0.015625 0.5625 0.015625 C 0.4375 0.015625 0.335938 -0.0078125 0.265625 -0.0625 C 0.191406 -0.125 0.15625 -0.210938 0.15625 -0.328125 C 0.15625 -0.492188 0.226562 -0.613281 0.375 -0.6875 C 0.519531 -0.769531 0.71875 -0.8125 0.96875 -0.8125 L 1.21875 -0.8125 L 1.21875 -0.84375 C 1.21875 -0.875 1.21875 -0.90625 1.21875 -0.9375 C 1.21875 -1.113281 1.113281 -1.203125 0.90625 -1.203125 C 0.789062 -1.203125 0.703125 -1.191406 0.640625 -1.171875 C 0.585938 -1.148438 0.550781 -1.128906 0.53125 -1.109375 C 0.507812 -1.097656 0.492188 -1.085938 0.484375 -1.078125 C 0.472656 -1.078125 0.460938 -1.078125 0.453125 -1.078125 C 0.429688 -1.066406 0.421875 -1.066406 0.421875 -1.078125 L 0.34375 -1.171875 C 0.34375 -1.191406 0.347656 -1.207031 0.359375 -1.21875 C 0.378906 -1.238281 0.40625 -1.257812 0.4375 -1.28125 C 0.46875 -1.300781 0.53125 -1.328125 0.625 -1.359375 C 0.71875 -1.390625 0.820312 -1.40625 0.9375 -1.40625 C 1.28125 -1.40625 1.453125 -1.257812 1.453125 -0.96875 C 1.453125 -0.925781 1.453125 -0.882812 1.453125 -0.84375 L 1.359375 -0.1875 L 1.515625 -0.1875 C 1.535156 -0.1875 1.546875 -0.175781 1.546875 -0.15625 L 1.53125 -0.03125 C 1.53125 -0.0078125 1.515625 0 1.484375 0 Z M 0.96875 -0.640625 C 0.789062 -0.640625 0.664062 -0.628906 0.59375 -0.609375 C 0.519531 -0.585938 0.46875 -0.554688 0.4375 -0.515625 C 0.414062 -0.484375 0.40625 -0.4375 0.40625 -0.375 C 0.40625 -0.320312 0.425781 -0.273438 0.46875 -0.234375 C 0.519531 -0.191406 0.582031 -0.171875 0.65625 -0.171875 C 0.84375 -0.171875 1.007812 -0.253906 1.15625 -0.421875 L 1.1875 -0.640625 Z M 0.96875 -0.640625 "/></g></g></g><g fill="#104d7d" fill-opacity="1"><g transform="translate(45.645857, 29.635789)"><g><path d="M 0.75 0.015625 C 0.613281 0.015625 0.507812 -0.0195312 0.4375 -0.09375 C 0.382812 -0.15625 0.359375 -0.238281 0.359375 -0.34375 C 0.359375 -0.382812 0.363281 -0.421875 0.375 -0.453125 L 0.46875 -1.1875 L 0.3125 -1.1875 C 0.28125 -1.1875 0.269531 -1.203125 0.28125 -1.234375 L 0.296875 -1.34375 C 0.296875 -1.375 0.3125 -1.390625 0.34375 -1.390625 L 0.5 -1.390625 L 0.53125 -1.671875 C 0.539062 -1.691406 0.554688 -1.703125 0.578125 -1.703125 L 0.734375 -1.703125 C 0.765625 -1.703125 0.773438 -1.691406 0.765625 -1.671875 L 0.734375 -1.390625 L 1.09375 -1.390625 C 1.113281 -1.390625 1.125 -1.378906 1.125 -1.359375 C 1.125 -1.359375 1.125 -1.351562 1.125 -1.34375 L 1.109375 -1.234375 C 1.097656 -1.203125 1.082031 -1.1875 1.0625 -1.1875 L 0.703125 -1.1875 L 0.609375 -0.46875 C 0.597656 -0.4375 0.59375 -0.410156 0.59375 -0.390625 C 0.59375 -0.253906 0.660156 -0.1875 0.796875 -0.1875 C 0.859375 -0.1875 0.914062 -0.203125 0.96875 -0.234375 C 0.988281 -0.242188 1.003906 -0.242188 1.015625 -0.234375 L 1.0625 -0.140625 C 1.070312 -0.128906 1.066406 -0.113281 1.046875 -0.09375 C 0.953125 -0.0195312 0.851562 0.015625 0.75 0.015625 Z M 0.75 0.015625 "/></g></g></g><g fill="#104d7d" fill-opacity="1"><g transform="translate(47.005238, 29.635789)"><g><path d="M 0.6875 0 L 0.140625 0 C 0.117188 0 0.109375 -0.0078125 0.109375 -0.03125 L 0.125 -0.15625 C 0.132812 -0.175781 0.148438 -0.1875 0.171875 -0.1875 L 0.328125 -0.1875 L 0.46875 -1.1875 L 0.3125 -1.1875 C 0.289062 -1.1875 0.28125 -1.203125 0.28125 -1.234375 L 0.296875 -1.34375 C 0.296875 -1.375 0.3125 -1.390625 0.34375 -1.390625 L 0.6875 -1.390625 C 0.707031 -1.390625 0.71875 -1.375 0.71875 -1.34375 L 0.5625 -0.1875 L 0.703125 -0.1875 C 0.734375 -0.1875 0.742188 -0.175781 0.734375 -0.15625 L 0.71875 -0.03125 C 0.71875 -0.0078125 0.707031 0 0.6875 0 Z M 0.65625 -1.84375 C 0.707031 -1.84375 0.742188 -1.828125 0.765625 -1.796875 C 0.796875 -1.773438 0.8125 -1.742188 0.8125 -1.703125 C 0.8125 -1.660156 0.789062 -1.617188 0.75 -1.578125 C 0.71875 -1.546875 0.675781 -1.53125 0.625 -1.53125 C 0.582031 -1.53125 0.546875 -1.539062 0.515625 -1.5625 C 0.492188 -1.59375 0.484375 -1.628906 0.484375 -1.671875 C 0.484375 -1.710938 0.5 -1.75 0.53125 -1.78125 C 0.570312 -1.820312 0.613281 -1.84375 0.65625 -1.84375 Z M 0.65625 -1.84375 "/></g></g></g><g fill="#104d7d" fill-opacity="1"><g transform="translate(48.060026, 29.635789)"><g><path d="M 1.609375 0 L 1.328125 0 C 1.265625 0 1.234375 -0.03125 1.234375 -0.09375 C 1.234375 -0.09375 1.234375 -0.101562 1.234375 -0.125 L 1.328125 -0.859375 C 1.335938 -0.890625 1.34375 -0.914062 1.34375 -0.9375 C 1.34375 -1.007812 1.328125 -1.066406 1.296875 -1.109375 C 1.242188 -1.171875 1.171875 -1.203125 1.078125 -1.203125 C 1.015625 -1.203125 0.953125 -1.179688 0.890625 -1.140625 C 0.835938 -1.097656 0.796875 -1.050781 0.765625 -1 C 0.703125 -0.914062 0.660156 -0.84375 0.640625 -0.78125 L 0.5625 -0.1875 L 0.703125 -0.1875 C 0.734375 -0.1875 0.742188 -0.175781 0.734375 -0.15625 L 0.71875 -0.03125 C 0.71875 -0.0078125 0.707031 0 0.6875 0 L 0.140625 0 C 0.117188 0 0.109375 -0.0078125 0.109375 -0.03125 L 0.125 -0.15625 C 0.132812 -0.175781 0.148438 -0.1875 0.171875 -0.1875 L 0.328125 -0.1875 L 0.46875 -1.1875 L 0.3125 -1.1875 C 0.289062 -1.1875 0.28125 -1.203125 0.28125 -1.234375 L 0.296875 -1.34375 C 0.296875 -1.375 0.3125 -1.390625 0.34375 -1.390625 L 0.671875 -1.390625 C 0.691406 -1.390625 0.703125 -1.375 0.703125 -1.34375 L 0.640625 -1.015625 L 0.65625 -1.015625 C 0.65625 -1.035156 0.671875 -1.070312 0.703125 -1.125 C 0.734375 -1.1875 0.765625 -1.234375 0.796875 -1.265625 C 0.835938 -1.296875 0.890625 -1.328125 0.953125 -1.359375 C 1.015625 -1.390625 1.085938 -1.40625 1.171875 -1.40625 C 1.316406 -1.40625 1.425781 -1.359375 1.5 -1.265625 C 1.550781 -1.203125 1.578125 -1.117188 1.578125 -1.015625 C 1.578125 -0.984375 1.578125 -0.945312 1.578125 -0.90625 L 1.46875 -0.1875 L 1.625 -0.1875 C 1.65625 -0.1875 1.664062 -0.175781 1.65625 -0.15625 L 1.640625 -0.03125 C 1.640625 -0.0078125 1.628906 0 1.609375 0 Z M 1.609375 0 "/></g></g></g><g fill="#104d7d" fill-opacity="1"><g transform="translate(50.039871, 29.635789)"><g><path d="M 0.65625 0.65625 C 0.5625 0.65625 0.488281 0.648438 0.4375 0.640625 C 0.394531 0.628906 0.359375 0.617188 0.328125 0.609375 C 0.304688 0.597656 0.285156 0.585938 0.265625 0.578125 C 0.253906 0.566406 0.238281 0.554688 0.21875 0.546875 C 0.15625 0.492188 0.125 0.457031 0.125 0.4375 C 0.125 0.4375 0.128906 0.429688 0.140625 0.421875 L 0.234375 0.3125 C 0.242188 0.300781 0.257812 0.300781 0.28125 0.3125 C 0.332031 0.363281 0.375 0.394531 0.40625 0.40625 C 0.4375 0.414062 0.460938 0.425781 0.484375 0.4375 C 0.546875 0.445312 0.613281 0.453125 0.6875 0.453125 C 0.820312 0.453125 0.929688 0.421875 1.015625 0.359375 C 1.109375 0.296875 1.164062 0.191406 1.1875 0.046875 L 1.234375 -0.25 C 1.191406 -0.175781 1.125 -0.113281 1.03125 -0.0625 C 0.945312 -0.0078125 0.847656 0.015625 0.734375 0.015625 C 0.566406 0.015625 0.429688 -0.0351562 0.328125 -0.140625 C 0.234375 -0.253906 0.1875 -0.398438 0.1875 -0.578125 C 0.1875 -0.816406 0.257812 -1.015625 0.40625 -1.171875 C 0.550781 -1.328125 0.726562 -1.40625 0.9375 -1.40625 C 1.050781 -1.40625 1.144531 -1.378906 1.21875 -1.328125 C 1.289062 -1.273438 1.335938 -1.207031 1.359375 -1.125 L 1.375 -1.125 L 1.40625 -1.34375 C 1.40625 -1.375 1.414062 -1.390625 1.4375 -1.390625 L 1.765625 -1.390625 C 1.796875 -1.390625 1.804688 -1.375 1.796875 -1.34375 L 1.78125 -1.234375 C 1.78125 -1.203125 1.765625 -1.1875 1.734375 -1.1875 L 1.59375 -1.1875 L 1.421875 0.046875 C 1.390625 0.253906 1.304688 0.40625 1.171875 0.5 C 1.035156 0.601562 0.863281 0.65625 0.65625 0.65625 Z M 0.421875 -0.609375 C 0.421875 -0.472656 0.453125 -0.363281 0.515625 -0.28125 C 0.585938 -0.207031 0.6875 -0.171875 0.8125 -0.171875 C 0.9375 -0.171875 1.050781 -0.226562 1.15625 -0.34375 C 1.257812 -0.457031 1.3125 -0.601562 1.3125 -0.78125 C 1.3125 -0.90625 1.273438 -1.003906 1.203125 -1.078125 C 1.140625 -1.160156 1.050781 -1.203125 0.9375 -1.203125 C 0.800781 -1.203125 0.679688 -1.144531 0.578125 -1.03125 C 0.472656 -0.925781 0.421875 -0.785156 0.421875 -0.609375 Z M 0.421875 -0.609375 "/></g></g></g><g fill="#104d7d" fill-opacity="1"><g transform="translate(51.991512, 29.635789)"><g/></g></g><g fill="#104d7d" fill-opacity="1"><g transform="translate(53.102707, 29.635789)"><g><path d="M 1.484375 0 L 1.25 0 C 1.175781 0 1.140625 -0.03125 1.140625 -0.09375 C 1.140625 -0.09375 1.140625 -0.101562 1.140625 -0.125 L 1.15625 -0.265625 C 0.988281 -0.078125 0.789062 0.015625 0.5625 0.015625 C 0.4375 0.015625 0.335938 -0.0078125 0.265625 -0.0625 C 0.191406 -0.125 0.15625 -0.210938 0.15625 -0.328125 C 0.15625 -0.492188 0.226562 -0.613281 0.375 -0.6875 C 0.519531 -0.769531 0.71875 -0.8125 0.96875 -0.8125 L 1.21875 -0.8125 L 1.21875 -0.84375 C 1.21875 -0.875 1.21875 -0.90625 1.21875 -0.9375 C 1.21875 -1.113281 1.113281 -1.203125 0.90625 -1.203125 C 0.789062 -1.203125 0.703125 -1.191406 0.640625 -1.171875 C 0.585938 -1.148438 0.550781 -1.128906 0.53125 -1.109375 C 0.507812 -1.097656 0.492188 -1.085938 0.484375 -1.078125 C 0.472656 -1.078125 0.460938 -1.078125 0.453125 -1.078125 C 0.429688 -1.066406 0.421875 -1.066406 0.421875 -1.078125 L 0.34375 -1.171875 C 0.34375 -1.191406 0.347656 -1.207031 0.359375 -1.21875 C 0.378906 -1.238281 0.40625 -1.257812 0.4375 -1.28125 C 0.46875 -1.300781 0.53125 -1.328125 0.625 -1.359375 C 0.71875 -1.390625 0.820312 -1.40625 0.9375 -1.40625 C 1.28125 -1.40625 1.453125 -1.257812 1.453125 -0.96875 C 1.453125 -0.925781 1.453125 -0.882812 1.453125 -0.84375 L 1.359375 -0.1875 L 1.515625 -0.1875 C 1.535156 -0.1875 1.546875 -0.175781 1.546875 -0.15625 L 1.53125 -0.03125 C 1.53125 -0.0078125 1.515625 0 1.484375 0 Z M 0.96875 -0.640625 C 0.789062 -0.640625 0.664062 -0.628906 0.59375 -0.609375 C 0.519531 -0.585938 0.46875 -0.554688 0.4375 -0.515625 C 0.414062 -0.484375 0.40625 -0.4375 0.40625 -0.375 C 0.40625 -0.320312 0.425781 -0.273438 0.46875 -0.234375 C 0.519531 -0.191406 0.582031 -0.171875 0.65625 -0.171875 C 0.84375 -0.171875 1.007812 -0.253906 1.15625 -0.421875 L 1.1875 -0.640625 Z M 0.96875 -0.640625 "/></g></g></g><g fill="#104d7d" fill-opacity="1"><g transform="translate(54.966919, 29.635789)"><g><path d="M 0.65625 0.65625 C 0.5625 0.65625 0.488281 0.648438 0.4375 0.640625 C 0.394531 0.628906 0.359375 0.617188 0.328125 0.609375 C 0.304688 0.597656 0.285156 0.585938 0.265625 0.578125 C 0.253906 0.566406 0.238281 0.554688 0.21875 0.546875 C 0.15625 0.492188 0.125 0.457031 0.125 0.4375 C 0.125 0.4375 0.128906 0.429688 0.140625 0.421875 L 0.234375 0.3125 C 0.242188 0.300781 0.257812 0.300781 0.28125 0.3125 C 0.332031 0.363281 0.375 0.394531 0.40625 0.40625 C 0.4375 0.414062 0.460938 0.425781 0.484375 0.4375 C 0.546875 0.445312 0.613281 0.453125 0.6875 0.453125 C 0.820312 0.453125 0.929688 0.421875 1.015625 0.359375 C 1.109375 0.296875 1.164062 0.191406 1.1875 0.046875 L 1.234375 -0.25 C 1.191406 -0.175781 1.125 -0.113281 1.03125 -0.0625 C 0.945312 -0.0078125 0.847656 0.015625 0.734375 0.015625 C 0.566406 0.015625 0.429688 -0.0351562 0.328125 -0.140625 C 0.234375 -0.253906 0.1875 -0.398438 0.1875 -0.578125 C 0.1875 -0.816406 0.257812 -1.015625 0.40625 -1.171875 C 0.550781 -1.328125 0.726562 -1.40625 0.9375 -1.40625 C 1.050781 -1.40625 1.144531 -1.378906 1.21875 -1.328125 C 1.289062 -1.273438 1.335938 -1.207031 1.359375 -1.125 L 1.375 -1.125 L 1.40625 -1.34375 C 1.40625 -1.375 1.414062 -1.390625 1.4375 -1.390625 L 1.765625 -1.390625 C 1.796875 -1.390625 1.804688 -1.375 1.796875 -1.34375 L 1.78125 -1.234375 C 1.78125 -1.203125 1.765625 -1.1875 1.734375 -1.1875 L 1.59375 -1.1875 L 1.421875 0.046875 C 1.390625 0.253906 1.304688 0.40625 1.171875 0.5 C 1.035156 0.601562 0.863281 0.65625 0.65625 0.65625 Z M 0.421875 -0.609375 C 0.421875 -0.472656 0.453125 -0.363281 0.515625 -0.28125 C 0.585938 -0.207031 0.6875 -0.171875 0.8125 -0.171875 C 0.9375 -0.171875 1.050781 -0.226562 1.15625 -0.34375 C 1.257812 -0.457031 1.3125 -0.601562 1.3125 -0.78125 C 1.3125 -0.90625 1.273438 -1.003906 1.203125 -1.078125 C 1.140625 -1.160156 1.050781 -1.203125 0.9375 -1.203125 C 0.800781 -1.203125 0.679688 -1.144531 0.578125 -1.03125 C 0.472656 -0.925781 0.421875 -0.785156 0.421875 -0.609375 Z M 0.421875 -0.609375 "/></g></g></g><g fill="#104d7d" fill-opacity="1"><g transform="translate(56.918559, 29.635789)"><g><path d="M 1.453125 -0.65625 L 0.4375 -0.65625 C 0.4375 -0.632812 0.4375 -0.613281 0.4375 -0.59375 C 0.4375 -0.46875 0.472656 -0.363281 0.546875 -0.28125 C 0.617188 -0.207031 0.710938 -0.171875 0.828125 -0.171875 C 0.941406 -0.171875 1.039062 -0.195312 1.125 -0.25 C 1.21875 -0.300781 1.28125 -0.347656 1.3125 -0.390625 C 1.332031 -0.410156 1.347656 -0.414062 1.359375 -0.40625 L 1.4375 -0.328125 C 1.445312 -0.304688 1.445312 -0.285156 1.4375 -0.265625 C 1.425781 -0.253906 1.40625 -0.234375 1.375 -0.203125 C 1.34375 -0.171875 1.300781 -0.140625 1.25 -0.109375 C 1.113281 -0.0234375 0.957031 0.015625 0.78125 0.015625 C 0.613281 0.015625 0.472656 -0.0351562 0.359375 -0.140625 C 0.253906 -0.253906 0.203125 -0.398438 0.203125 -0.578125 C 0.203125 -0.753906 0.238281 -0.90625 0.3125 -1.03125 C 0.394531 -1.15625 0.492188 -1.25 0.609375 -1.3125 C 0.722656 -1.375 0.84375 -1.40625 0.96875 -1.40625 C 1.132812 -1.40625 1.265625 -1.351562 1.359375 -1.25 C 1.460938 -1.15625 1.515625 -1.015625 1.515625 -0.828125 C 1.515625 -0.710938 1.492188 -0.65625 1.453125 -0.65625 Z M 1.28125 -0.890625 C 1.28125 -0.984375 1.253906 -1.0625 1.203125 -1.125 C 1.148438 -1.1875 1.066406 -1.21875 0.953125 -1.21875 C 0.835938 -1.21875 0.734375 -1.1875 0.640625 -1.125 C 0.554688 -1.0625 0.5 -0.960938 0.46875 -0.828125 L 1.28125 -0.828125 C 1.28125 -0.847656 1.28125 -0.867188 1.28125 -0.890625 Z M 1.28125 -0.890625 "/></g></g></g><g fill="#104d7d" fill-opacity="1"><g transform="translate(58.664319, 29.635789)"><g><path d="M 1.609375 0 L 1.328125 0 C 1.265625 0 1.234375 -0.03125 1.234375 -0.09375 C 1.234375 -0.09375 1.234375 -0.101562 1.234375 -0.125 L 1.328125 -0.859375 C 1.335938 -0.890625 1.34375 -0.914062 1.34375 -0.9375 C 1.34375 -1.007812 1.328125 -1.066406 1.296875 -1.109375 C 1.242188 -1.171875 1.171875 -1.203125 1.078125 -1.203125 C 1.015625 -1.203125 0.953125 -1.179688 0.890625 -1.140625 C 0.835938 -1.097656 0.796875 -1.050781 0.765625 -1 C 0.703125 -0.914062 0.660156 -0.84375 0.640625 -0.78125 L 0.5625 -0.1875 L 0.703125 -0.1875 C 0.734375 -0.1875 0.742188 -0.175781 0.734375 -0.15625 L 0.71875 -0.03125 C 0.71875 -0.0078125 0.707031 0 0.6875 0 L 0.140625 0 C 0.117188 0 0.109375 -0.0078125 0.109375 -0.03125 L 0.125 -0.15625 C 0.132812 -0.175781 0.148438 -0.1875 0.171875 -0.1875 L 0.328125 -0.1875 L 0.46875 -1.1875 L 0.3125 -1.1875 C 0.289062 -1.1875 0.28125 -1.203125 0.28125 -1.234375 L 0.296875 -1.34375 C 0.296875 -1.375 0.3125 -1.390625 0.34375 -1.390625 L 0.671875 -1.390625 C 0.691406 -1.390625 0.703125 -1.375 0.703125 -1.34375 L 0.640625 -1.015625 L 0.65625 -1.015625 C 0.65625 -1.035156 0.671875 -1.070312 0.703125 -1.125 C 0.734375 -1.1875 0.765625 -1.234375 0.796875 -1.265625 C 0.835938 -1.296875 0.890625 -1.328125 0.953125 -1.359375 C 1.015625 -1.390625 1.085938 -1.40625 1.171875 -1.40625 C 1.316406 -1.40625 1.425781 -1.359375 1.5 -1.265625 C 1.550781 -1.203125 1.578125 -1.117188 1.578125 -1.015625 C 1.578125 -0.984375 1.578125 -0.945312 1.578125 -0.90625 L 1.46875 -0.1875 L 1.625 -0.1875 C 1.65625 -0.1875 1.664062 -0.175781 1.65625 -0.15625 L 1.640625 -0.03125 C 1.640625 -0.0078125 1.628906 0 1.609375 0 Z M 1.609375 0 "/></g></g></g><g fill="#104d7d" fill-opacity="1"><g transform="translate(60.644163, 29.635789)"><g><path d="M 0.796875 0.015625 C 0.617188 0.015625 0.472656 -0.0351562 0.359375 -0.140625 C 0.253906 -0.253906 0.203125 -0.40625 0.203125 -0.59375 C 0.203125 -0.84375 0.28125 -1.039062 0.4375 -1.1875 C 0.59375 -1.332031 0.769531 -1.40625 0.96875 -1.40625 C 1.175781 -1.40625 1.316406 -1.332031 1.390625 -1.1875 L 1.421875 -1.34375 C 1.421875 -1.375 1.429688 -1.390625 1.453125 -1.390625 L 1.5625 -1.390625 C 1.582031 -1.390625 1.59375 -1.375 1.59375 -1.34375 L 1.53125 -0.875 C 1.519531 -0.851562 1.503906 -0.84375 1.484375 -0.84375 L 1.359375 -0.84375 C 1.335938 -0.84375 1.328125 -0.851562 1.328125 -0.875 L 1.328125 -0.921875 C 1.328125 -0.929688 1.328125 -0.9375 1.328125 -0.9375 C 1.328125 -1 1.296875 -1.054688 1.234375 -1.109375 C 1.171875 -1.171875 1.078125 -1.203125 0.953125 -1.203125 C 0.835938 -1.203125 0.722656 -1.148438 0.609375 -1.046875 C 0.492188 -0.941406 0.4375 -0.800781 0.4375 -0.625 C 0.4375 -0.488281 0.472656 -0.378906 0.546875 -0.296875 C 0.628906 -0.210938 0.722656 -0.171875 0.828125 -0.171875 C 0.929688 -0.171875 1.03125 -0.195312 1.125 -0.25 C 1.21875 -0.300781 1.28125 -0.347656 1.3125 -0.390625 C 1.332031 -0.410156 1.347656 -0.414062 1.359375 -0.40625 L 1.4375 -0.328125 C 1.445312 -0.304688 1.441406 -0.285156 1.421875 -0.265625 C 1.410156 -0.242188 1.390625 -0.21875 1.359375 -0.1875 C 1.335938 -0.164062 1.300781 -0.140625 1.25 -0.109375 C 1.125 -0.0234375 0.972656 0.015625 0.796875 0.015625 Z M 0.796875 0.015625 "/></g></g></g><g fill="#104d7d" fill-opacity="1"><g transform="translate(62.392744, 29.635789)"><g><path d="M 0.734375 -0.03125 C 0.722656 -0.03125 0.710938 -0.0351562 0.703125 -0.046875 C 0.691406 -0.0546875 0.679688 -0.0703125 0.671875 -0.09375 L 0.40625 -1.1875 L 0.25 -1.1875 C 0.21875 -1.1875 0.207031 -1.203125 0.21875 -1.234375 L 0.234375 -1.34375 C 0.234375 -1.375 0.242188 -1.390625 0.265625 -1.390625 L 0.78125 -1.390625 C 0.800781 -1.390625 0.8125 -1.375 0.8125 -1.34375 L 0.796875 -1.234375 C 0.785156 -1.203125 0.769531 -1.1875 0.75 -1.1875 L 0.640625 -1.1875 L 0.859375 -0.234375 L 0.875 -0.234375 L 1.34375 -1.1875 L 1.21875 -1.1875 C 1.195312 -1.1875 1.1875 -1.203125 1.1875 -1.234375 L 1.203125 -1.34375 C 1.203125 -1.375 1.21875 -1.390625 1.25 -1.390625 L 1.765625 -1.390625 C 1.785156 -1.390625 1.796875 -1.375 1.796875 -1.34375 L 1.78125 -1.234375 C 1.78125 -1.203125 1.765625 -1.1875 1.734375 -1.1875 L 1.578125 -1.1875 L 0.890625 0.1875 C 0.804688 0.351562 0.722656 0.472656 0.640625 0.546875 C 0.566406 0.617188 0.46875 0.65625 0.34375 0.65625 C 0.226562 0.65625 0.140625 0.617188 0.078125 0.546875 C 0.0664062 0.535156 0.0625 0.523438 0.0625 0.515625 C 0.0625 0.515625 0.0664062 0.507812 0.078125 0.5 L 0.15625 0.40625 C 0.164062 0.394531 0.179688 0.394531 0.203125 0.40625 C 0.253906 0.4375 0.304688 0.453125 0.359375 0.453125 C 0.421875 0.453125 0.472656 0.429688 0.515625 0.390625 C 0.566406 0.347656 0.617188 0.273438 0.671875 0.171875 L 0.765625 -0.03125 Z M 0.734375 -0.03125 "/></g></g></g></svg>