<svg xmlns="http://www.w3.org/2000/svg" xmlns:xlink="http://www.w3.org/1999/xlink" width="500" zoomAndPan="magnify" viewBox="0 0 375 374.999991" height="500" preserveAspectRatio="xMidYMid meet" version="1.0"><defs><g/><clipPath id="6c0db00375"><path d="M 218 117 L 316 117 L 316 213 L 218 213 Z M 218 117 " clip-rule="nonzero"/></clipPath><clipPath id="97deb3eeb5"><path d="M 233.015625 105.34375 L 325.289062 161.464844 L 280.082031 235.796875 L 187.808594 179.675781 Z M 233.015625 105.34375 " clip-rule="nonzero"/></clipPath><clipPath id="553c2ef2d7"><path d="M 233.015625 105.34375 L 325.289062 161.464844 L 280.082031 235.796875 L 187.808594 179.675781 Z M 233.015625 105.34375 " clip-rule="nonzero"/></clipPath><clipPath id="cbba9c6392"><path d="M 264 176 L 298 176 L 298 211 L 264 211 Z M 264 176 " clip-rule="nonzero"/></clipPath><clipPath id="e82e622bda"><path d="M 274.925781 168.167969 L 305.726562 201.996094 L 281.878906 223.707031 L 251.078125 189.878906 Z M 274.925781 168.167969 " clip-rule="nonzero"/></clipPath><clipPath id="970f56f2a8"><path d="M 274.925781 168.167969 L 305.726562 201.996094 L 281.878906 223.707031 L 251.078125 189.878906 Z M 274.925781 168.167969 " clip-rule="nonzero"/></clipPath><clipPath id="586347dabe"><path d="M 254 189 L 280 189 L 280 217 L 254 217 Z M 254 189 " clip-rule="nonzero"/></clipPath><clipPath id="f81df2f649"><path d="M 272.503906 183.628906 L 283.386719 217.15625 L 259.847656 224.796875 L 248.960938 191.269531 Z M 272.503906 183.628906 " clip-rule="nonzero"/></clipPath><clipPath id="77ebdab591"><path d="M 272.503906 183.628906 L 283.386719 217.15625 L 259.847656 224.796875 L 248.960938 191.269531 Z M 272.503906 183.628906 " clip-rule="nonzero"/></clipPath></defs><g clip-path="url(#6c0db00375)"><g clip-path="url(#97deb3eeb5)"><g clip-path="url(#553c2ef2d7)"><path fill="#bf5283" d="M 240.011719 210.789062 C 239.746094 210.394531 239.574219 209.960938 239.496094 209.496094 C 239.039062 207.042969 238.4375 205.316406 236.300781 200.320312 C 231.597656 189.320312 228.558594 181.496094 227.183594 176.851562 C 224.890625 169.105469 224.054688 161.277344 224.78125 154.355469 C 225.457031 147.933594 227.917969 141.75 231.199219 138.222656 C 234.398438 134.789062 238.78125 133.492188 243.175781 134.679688 C 244.890625 135.167969 246.492188 135.902344 247.980469 136.882812 C 249.46875 137.863281 250.773438 139.046875 251.894531 140.429688 C 255.144531 144.40625 257.390625 150.292969 259.15625 159.460938 C 260.128906 164.523438 260.234375 165.097656 260.210938 165.230469 C 260.144531 165.574219 260.457031 165.445312 261.296875 164.789062 C 264.136719 162.566406 268.582031 160.214844 272.898438 158.65625 C 278.144531 156.765625 282.863281 156.074219 287.640625 156.503906 C 291.519531 156.851562 293.539062 157.492188 296.117188 159.203125 C 297.980469 160.433594 298.949219 161.375 299.863281 162.839844 C 302.480469 167.042969 302.316406 172.53125 299.394531 178.648438 C 296.625 184.453125 290.433594 190.203125 281.703125 195.09375 C 276.5 198.007812 271.78125 200.179688 263.875 203.308594 C 261.738281 204.15625 258.59375 205.398438 256.886719 206.074219 C 252.683594 207.742188 248.832031 209.550781 246.601562 210.910156 C 244.578125 212.140625 243.566406 212.472656 242.644531 212.214844 C 241.785156 211.972656 240.398438 211.222656 240.011719 210.789062 Z M 244.886719 205.578125 C 246.910156 204.3125 251.878906 202.140625 260.128906 198.914062 C 268.335938 195.703125 272.734375 193.746094 277.449219 191.203125 C 287.972656 185.527344 293.773438 179.785156 295.710938 173.113281 C 296.261719 171.214844 296.382812 169.570312 296.078125 168.042969 C 295.660156 165.929688 294.828125 164.773438 292.867188 163.574219 C 291.464844 162.722656 289.96875 162.246094 287.832031 161.976562 C 282.820312 161.347656 276.957031 162.523438 270.980469 165.351562 C 267.421875 167.035156 265.230469 168.476562 262.59375 170.871094 C 260.808594 172.492188 260.351562 172.765625 259.199219 172.90625 C 257.726562 173.089844 256.597656 172.488281 256.035156 171.21875 C 255.675781 170.070312 255.394531 168.902344 255.1875 167.714844 L 254.1875 162.515625 C 252.261719 152.484375 250.796875 148.125 248.136719 144.496094 C 245.710938 141.183594 241.859375 139.234375 238.867188 139.804688 C 236.429688 140.269531 234.328125 142.328125 232.664062 145.882812 C 229.066406 153.566406 229.074219 164.589844 232.691406 176.191406 C 233.867188 179.964844 235.09375 183.183594 238.398438 191.199219 C 239.648438 194.222656 240.984375 197.523438 241.371094 198.53125 C 242.183594 200.640625 243.558594 204.726562 243.710938 205.492188 C 243.734375 205.699219 243.804688 205.890625 243.910156 206.066406 C 244.261719 205.960938 244.589844 205.796875 244.886719 205.578125 Z M 221.53125 135.285156 C 220.511719 134.234375 218.730469 132.054688 218.515625 131.605469 C 218.039062 130.605469 218.625 129.066406 219.664062 128.59375 C 221.105469 127.9375 221.859375 128.304688 224.203125 130.800781 C 226.019531 132.734375 226.378906 133.242188 226.429688 133.953125 C 226.472656 134.425781 226.386719 134.878906 226.167969 135.300781 C 225.953125 135.726562 225.640625 136.0625 225.230469 136.308594 C 224.820312 136.550781 224.378906 136.671875 223.898438 136.660156 C 223.421875 136.652344 222.984375 136.515625 222.585938 136.253906 C 222.207031 135.960938 221.855469 135.636719 221.53125 135.285156 Z M 305.023438 180.15625 C 304.765625 179.90625 304.574219 179.613281 304.445312 179.277344 C 304.320312 178.941406 304.269531 178.59375 304.292969 178.238281 C 304.320312 177.878906 304.421875 177.542969 304.59375 177.230469 C 304.769531 176.917969 305 176.65625 305.292969 176.445312 C 306.054688 175.894531 306.882812 175.921875 308.40625 176.550781 C 309.292969 176.929688 310.15625 177.359375 310.992188 177.835938 C 312.054688 178.464844 312.25 178.628906 312.421875 179.046875 C 313.199219 180.953125 311.914062 182.597656 309.773438 182.429688 C 308.9375 182.363281 305.605469 180.769531 305.023438 180.15625 Z M 231.585938 126.640625 C 230.910156 125.765625 230.09375 122.773438 230.113281 121.246094 C 230.136719 119.207031 231.382812 118.125 233.164062 118.589844 C 234.226562 118.867188 234.546875 119.328125 235.003906 121.265625 C 235.234375 122.230469 235.585938 123.546875 235.789062 124.195312 C 236.226562 125.589844 236.125 126.402344 235.433594 127.121094 C 234.703125 127.875 233.300781 128.066406 232.449219 127.527344 C 232.121094 127.269531 231.835938 126.972656 231.585938 126.640625 Z M 306.457031 169.578125 C 305.570312 168.398438 305.972656 166.753906 307.335938 166.023438 C 308.097656 165.609375 310.558594 165.328125 312.242188 165.457031 C 312.945312 165.460938 313.585938 165.660156 314.164062 166.058594 C 314.828125 166.460938 315.058594 166.679688 315.210938 167.054688 C 315.375 167.410156 315.453125 167.785156 315.4375 168.175781 C 315.421875 168.566406 315.320312 168.933594 315.128906 169.277344 C 314.507812 170.300781 313.660156 170.578125 311.5625 170.445312 C 310.804688 170.398438 310.050781 170.40625 309.296875 170.460938 C 307.871094 170.621094 307.046875 170.363281 306.457031 169.578125 Z M 240.300781 126.203125 C 239.867188 125.507812 239.664062 123.726562 239.738281 121.320312 C 239.796875 119.324219 240.3125 118.328125 241.488281 117.933594 C 241.671875 117.871094 241.859375 117.832031 242.050781 117.816406 C 242.242188 117.800781 242.433594 117.804688 242.621094 117.835938 C 242.8125 117.863281 242.996094 117.917969 243.171875 117.992188 C 243.347656 118.0625 243.515625 118.15625 243.667969 118.273438 C 243.824219 118.386719 243.964844 118.515625 244.085938 118.664062 C 244.210938 118.8125 244.3125 118.972656 244.398438 119.144531 C 244.484375 119.316406 244.546875 119.496094 244.585938 119.683594 C 244.628906 119.871094 244.644531 120.058594 244.640625 120.253906 C 244.640625 120.628906 244.695312 121.828125 244.765625 122.917969 C 244.839844 123.761719 244.839844 124.601562 244.765625 125.441406 C 244.703125 125.738281 244.589844 126.011719 244.425781 126.265625 C 244.261719 126.519531 244.058594 126.734375 243.816406 126.914062 C 243.570312 127.089844 243.304688 127.21875 243.011719 127.300781 C 242.722656 127.378906 242.425781 127.402344 242.125 127.375 C 241.738281 127.355469 241.382812 127.242188 241.058594 127.03125 C 240.734375 126.824219 240.480469 126.546875 240.300781 126.203125 Z M 301.417969 159.910156 C 300.980469 158.945312 301.019531 158.433594 301.597656 157.492188 C 302.167969 156.566406 302.984375 155.9375 306.523438 153.6875 C 308.320312 152.542969 309.128906 152.261719 309.875 152.515625 C 310.082031 152.585938 310.347656 152.671875 310.460938 152.699219 C 311.160156 152.871094 311.957031 154.4375 311.8125 155.355469 C 311.65625 156.363281 310.988281 156.996094 308.59375 158.386719 C 307.371094 159.097656 305.953125 159.988281 305.445312 160.367188 C 305.046875 160.679688 304.621094 160.941406 304.164062 161.15625 C 303.898438 161.21875 303.628906 161.234375 303.359375 161.207031 C 303.089844 161.175781 302.828125 161.105469 302.582031 160.996094 C 302.335938 160.882812 302.109375 160.734375 301.914062 160.546875 C 301.714844 160.359375 301.550781 160.148438 301.421875 159.910156 Z M 301.417969 159.910156 " fill-opacity="1" fill-rule="nonzero"/></g></g></g><g clip-path="url(#cbba9c6392)"><g clip-path="url(#e82e622bda)"><g clip-path="url(#970f56f2a8)"><path fill="#ff5757" d="M 297.625 198.980469 C 298.132812 194.011719 294.441406 189.613281 289.457031 189.425781 C 286.898438 189.328125 284.5 190.300781 282.703125 191.933594 C 284.5 190.300781 285.691406 188 285.832031 185.445312 C 286.109375 180.460938 282.078125 176.378906 277.082031 176.417969 C 265.757812 176.511719 261.53125 191.335938 265.695312 205.40625 C 265.992188 206.40625 266.730469 207.21875 267.699219 207.605469 C 281.320312 213.070312 296.472656 210.246094 297.625 198.980469 Z M 297.625 198.980469 " fill-opacity="1" fill-rule="nonzero"/></g></g></g><g clip-path="url(#586347dabe)"><g clip-path="url(#f81df2f649)"><g clip-path="url(#77ebdab591)"><path fill="#104d7d" d="M 278.65625 212.460938 C 280.589844 209.132812 279.398438 204.875 275.957031 203.160156 C 274.191406 202.28125 272.199219 202.203125 270.417969 202.777344 C 272.199219 202.203125 273.765625 200.964844 274.675781 199.21875 C 276.453125 195.808594 274.917969 191.660156 271.398438 190.105469 C 263.417969 186.574219 255.75 195.640625 254.207031 206.835938 C 254.09375 207.636719 254.355469 208.4375 254.914062 209.019531 C 262.742188 217.175781 274.269531 220.003906 278.65625 212.460938 Z M 278.65625 212.460938 " fill-opacity="1" fill-rule="nonzero"/></g></g></g><g fill="#bf5283" fill-opacity="1"><g transform="translate(80.465107, 221.891107)"><g><path d="M 11.109375 -2.515625 C 11.984375 -2.671875 13.789062 -3.039062 16.53125 -3.625 L 20.25 -4.390625 C 20.664062 -3.972656 21.019531 -3.601562 21.3125 -3.28125 C 21.601562 -2.957031 21.75 -2.6875 21.75 -2.46875 C 21.75 -2.207031 21.617188 -1.945312 21.359375 -1.6875 C 21.097656 -1.4375 20.582031 -1.019531 19.8125 -0.4375 C 19.71875 -0.375 19.613281 -0.257812 19.5 -0.09375 C 19.382812 0.0625 19.265625 0.15625 19.140625 0.1875 L 17.828125 0.53125 C 16.734375 0.851562 15.757812 1.101562 14.90625 1.28125 C 14.050781 1.457031 13.191406 1.546875 12.328125 1.546875 C 9.234375 1.546875 6.703125 0.628906 4.734375 -1.203125 C 3.992188 -1.878906 3.421875 -2.5625 3.015625 -3.25 C 2.617188 -3.945312 2.421875 -4.703125 2.421875 -5.515625 C 2.421875 -5.867188 2.4375 -6.125 2.46875 -6.28125 C 2.976562 -9.46875 3.554688 -12.175781 4.203125 -14.40625 C 4.878906 -16.851562 6.101562 -21.007812 7.875 -26.875 C 8.257812 -28.257812 8.875 -30.335938 9.71875 -33.109375 C 9.9375 -33.847656 10.25 -34.363281 10.65625 -34.65625 C 11.0625 -34.945312 11.648438 -35.054688 12.421875 -34.984375 C 12.578125 -34.984375 12.726562 -34.96875 12.875 -34.9375 C 13.019531 -34.90625 13.175781 -34.890625 13.34375 -34.890625 C 15.332031 -34.734375 16.328125 -33.769531 16.328125 -32 C 16.328125 -31.539062 16.265625 -31.070312 16.140625 -30.59375 C 15.878906 -29.5625 15.394531 -28.175781 14.6875 -26.4375 C 12.082031 -19.800781 10.070312 -13.40625 8.65625 -7.25 C 8.457031 -6.476562 8.359375 -5.671875 8.359375 -4.828125 C 8.359375 -3.253906 9.050781 -2.46875 10.4375 -2.46875 C 10.726562 -2.46875 10.953125 -2.484375 11.109375 -2.515625 Z M 11.109375 -2.515625 "/></g></g></g><g fill="#bf5283" fill-opacity="1"><g transform="translate(102.695635, 221.891107)"><g><path d="M 13 -3.234375 C 12 -2.617188 10.851562 -2.3125 9.5625 -2.3125 C 8.144531 -2.3125 6.785156 -2.675781 5.484375 -3.40625 C 4.179688 -4.132812 3.140625 -5.171875 2.359375 -6.515625 C 1.585938 -7.867188 1.269531 -9.414062 1.40625 -11.15625 L 1.640625 -12.328125 C 1.835938 -13.484375 2 -14.335938 2.125 -14.890625 C 2.414062 -16.078125 2.992188 -16.910156 3.859375 -17.390625 C 4.734375 -17.878906 5.894531 -18.269531 7.34375 -18.5625 C 8.28125 -18.75 9.195312 -18.84375 10.09375 -18.84375 C 12.9375 -18.84375 15.320312 -17.894531 17.25 -16 C 18.28125 -14.96875 18.796875 -13.710938 18.796875 -12.234375 C 18.796875 -10.773438 18.265625 -9.210938 17.203125 -7.546875 C 15.984375 -5.640625 14.582031 -4.203125 13 -3.234375 Z M 8.9375 -16.390625 C 8.425781 -15.128906 7.878906 -13.566406 7.296875 -11.703125 L 6.8125 -10.25 L 7.15625 -10.09375 C 7.15625 -9.875 7.160156 -9.53125 7.171875 -9.0625 C 7.191406 -8.59375 7.25 -8.195312 7.34375 -7.875 C 7.695312 -6.875 8.097656 -6.265625 8.546875 -6.046875 C 8.742188 -5.941406 9.023438 -5.984375 9.390625 -6.171875 C 9.765625 -6.367188 10.097656 -6.597656 10.390625 -6.859375 C 10.835938 -7.242188 11.5625 -8.050781 12.5625 -9.28125 C 13.300781 -10.113281 13.671875 -11.113281 13.671875 -12.28125 C 13.671875 -13.28125 13.390625 -14.179688 12.828125 -14.984375 C 12.265625 -15.785156 11.484375 -16.332031 10.484375 -16.625 C 10.390625 -16.65625 10.210938 -16.671875 9.953125 -16.671875 C 9.335938 -16.671875 9 -16.578125 8.9375 -16.390625 Z M 8.9375 -16.390625 "/></g></g></g><g fill="#bf5283" fill-opacity="1"><g transform="translate(121.398242, 221.891107)"><g><path d="M 14.0625 -3.859375 C 13.09375 -2.828125 12.046875 -2.3125 10.921875 -2.3125 C 9.984375 -2.3125 9 -2.617188 7.96875 -3.234375 L 7.828125 1.15625 C 7.671875 4.382812 7.59375 7.1875 7.59375 9.5625 C 7.59375 10.019531 7.625 10.734375 7.6875 11.703125 C 7.75 12.660156 7.78125 13.367188 7.78125 13.828125 C 7.78125 14.304688 7.765625 14.660156 7.734375 14.890625 C 7.703125 15.171875 7.507812 15.476562 7.15625 15.8125 C 6.800781 16.15625 6.445312 16.378906 6.09375 16.484375 C 5.832031 16.546875 5.65625 16.578125 5.5625 16.578125 C 4.820312 16.578125 4.101562 16.253906 3.40625 15.609375 C 2.71875 14.960938 2.390625 14.285156 2.421875 13.578125 C 2.484375 11.160156 2.609375 7.664062 2.796875 3.09375 L 3.140625 -7.4375 C 3.203125 -9.375 3.085938 -11.003906 2.796875 -12.328125 C 2.734375 -12.710938 2.703125 -12.96875 2.703125 -13.09375 C 2.703125 -13.613281 2.851562 -14.015625 3.15625 -14.296875 C 3.46875 -14.585938 3.878906 -14.769531 4.390625 -14.84375 C 5.203125 -14.90625 5.847656 -15.117188 6.328125 -15.484375 C 6.816406 -15.859375 7.378906 -16.445312 8.015625 -17.25 C 9.179688 -18.695312 10.457031 -19.421875 11.84375 -19.421875 C 13.382812 -19.421875 15.140625 -18.472656 17.109375 -16.578125 C 18.015625 -15.703125 18.46875 -14.523438 18.46875 -13.046875 C 18.46875 -12.503906 18.414062 -11.957031 18.3125 -11.40625 C 18.09375 -10.050781 17.617188 -8.789062 16.890625 -7.625 C 16.160156 -6.46875 15.21875 -5.210938 14.0625 -3.859375 Z M 9.5625 -11.9375 C 8.851562 -10 8.5 -8.273438 8.5 -6.765625 C 8.5 -6.410156 8.515625 -6.15625 8.546875 -6 L 9.140625 -5.703125 C 9.773438 -5.898438 10.445312 -6.460938 11.15625 -7.390625 C 11.875 -8.328125 12.460938 -9.382812 12.921875 -10.5625 C 13.390625 -11.738281 13.625 -12.773438 13.625 -13.671875 C 13.625 -14.054688 13.546875 -14.445312 13.390625 -14.84375 C 13.160156 -15.257812 12.820312 -15.46875 12.375 -15.46875 C 11.789062 -15.46875 11.367188 -15.257812 11.109375 -14.84375 C 11.015625 -14.707031 10.789062 -14.347656 10.4375 -13.765625 C 10.082031 -13.191406 9.789062 -12.582031 9.5625 -11.9375 Z M 9.5625 -11.9375 "/></g></g></g><g fill="#bf5283" fill-opacity="1"><g transform="translate(140.825766, 221.891107)"><g><path d="M 11.21875 -7.546875 C 10.894531 -7.347656 10.425781 -7.25 9.8125 -7.25 C 9.582031 -7.25 9.304688 -7.265625 8.984375 -7.296875 C 8.660156 -7.328125 8.390625 -7.328125 8.171875 -7.296875 C 8.421875 -6.234375 9.03125 -5.367188 10 -4.703125 C 10.96875 -4.046875 12.046875 -3.71875 13.234375 -3.71875 C 14.265625 -3.71875 15.1875 -3.941406 16 -4.390625 C 17.1875 -5.003906 18.21875 -5.734375 19.09375 -6.578125 C 19.707031 -7.179688 20.285156 -7.484375 20.828125 -7.484375 C 21.179688 -7.484375 21.488281 -7.304688 21.75 -6.953125 C 22.007812 -6.535156 22.140625 -6.019531 22.140625 -5.40625 C 22.140625 -4.769531 22.007812 -4.273438 21.75 -3.921875 C 20.90625 -2.628906 19.816406 -1.738281 18.484375 -1.25 C 17.148438 -0.769531 15.597656 -0.53125 13.828125 -0.53125 C 11.984375 -0.53125 10.207031 -0.929688 8.5 -1.734375 C 6.789062 -2.546875 5.332031 -3.648438 4.125 -5.046875 C 2.914062 -6.453125 2.117188 -8.007812 1.734375 -9.71875 C 1.484375 -10.71875 1.359375 -11.695312 1.359375 -12.65625 C 1.359375 -14.175781 1.785156 -15.398438 2.640625 -16.328125 C 3.492188 -17.265625 4.867188 -18.15625 6.765625 -19 C 8.503906 -19.738281 10.113281 -20.109375 11.59375 -20.109375 C 12.65625 -20.109375 13.6875 -19.945312 14.6875 -19.625 C 17.78125 -18.65625 19.328125 -17.332031 19.328125 -15.65625 C 19.328125 -14.59375 18.703125 -13.304688 17.453125 -11.796875 C 16.835938 -11.085938 16.109375 -10.457031 15.265625 -9.90625 C 14.429688 -9.351562 13.617188 -8.859375 12.828125 -8.421875 C 12.035156 -7.992188 11.5 -7.703125 11.21875 -7.546875 Z M 13.234375 -16.484375 C 13.203125 -16.640625 13.082031 -16.773438 12.875 -16.890625 C 12.664062 -17.003906 12.546875 -17.078125 12.515625 -17.109375 C 11.648438 -17.171875 10.765625 -16.921875 9.859375 -16.359375 C 8.953125 -15.796875 8.203125 -15.078125 7.609375 -14.203125 C 7.015625 -13.335938 6.71875 -12.503906 6.71875 -11.703125 L 6.765625 -11.3125 C 6.796875 -11.175781 6.960938 -11.007812 7.265625 -10.8125 C 7.578125 -10.625 7.765625 -10.5625 7.828125 -10.625 C 10.117188 -12.332031 11.84375 -13.703125 13 -14.734375 C 13.195312 -14.929688 13.296875 -15.285156 13.296875 -15.796875 C 13.296875 -16.117188 13.273438 -16.347656 13.234375 -16.484375 Z M 13.234375 -16.484375 "/></g></g></g><g fill="#bf5283" fill-opacity="1"><g transform="translate(161.993089, 221.891107)"><g><path d="M 7.96875 -2.21875 C 8.613281 -3 9.082031 -3.613281 9.375 -4.0625 C 9.726562 -4.539062 10.097656 -4.78125 10.484375 -4.78125 C 10.867188 -4.78125 11.160156 -4.539062 11.359375 -4.0625 C 11.804688 -2.769531 12.03125 -1.753906 12.03125 -1.015625 C 12.03125 -0.691406 12.015625 -0.453125 11.984375 -0.296875 C 11.859375 0.347656 11.492188 0.800781 10.890625 1.0625 C 10.296875 1.320312 9.597656 1.421875 8.796875 1.359375 C 8.503906 1.359375 8.007812 1.359375 7.3125 1.359375 C 6.625 1.359375 6.03125 1.257812 5.53125 1.0625 C 5.03125 0.863281 4.585938 0.539062 4.203125 0.09375 C 3.367188 -0.90625 2.953125 -1.867188 2.953125 -2.796875 C 2.953125 -10.335938 2.914062 -16.007812 2.84375 -19.8125 L 2.796875 -28.3125 C 2.796875 -29.445312 2.6875 -30.476562 2.46875 -31.40625 C 2.4375 -31.570312 2.421875 -31.769531 2.421875 -32 C 2.421875 -33.1875 3.222656 -33.78125 4.828125 -33.78125 C 5.890625 -33.78125 6.785156 -33.429688 7.515625 -32.734375 C 8.242188 -32.046875 8.570312 -31.140625 8.5 -30.015625 C 8.40625 -28.304688 8.28125 -25.742188 8.125 -22.328125 L 7.828125 -16.53125 C 7.566406 -11.050781 7.390625 -6.941406 7.296875 -4.203125 C 7.265625 -3.878906 7.28125 -3.523438 7.34375 -3.140625 C 7.40625 -2.753906 7.453125 -2.515625 7.484375 -2.421875 Z M 7.96875 -2.21875 "/></g></g></g><g fill="#bf5283" fill-opacity="1"><g transform="translate(173.591508, 221.891107)"><g><path d="M 13 -3.234375 C 12 -2.617188 10.851562 -2.3125 9.5625 -2.3125 C 8.144531 -2.3125 6.785156 -2.675781 5.484375 -3.40625 C 4.179688 -4.132812 3.140625 -5.171875 2.359375 -6.515625 C 1.585938 -7.867188 1.269531 -9.414062 1.40625 -11.15625 L 1.640625 -12.328125 C 1.835938 -13.484375 2 -14.335938 2.125 -14.890625 C 2.414062 -16.078125 2.992188 -16.910156 3.859375 -17.390625 C 4.734375 -17.878906 5.894531 -18.269531 7.34375 -18.5625 C 8.28125 -18.75 9.195312 -18.84375 10.09375 -18.84375 C 12.9375 -18.84375 15.320312 -17.894531 17.25 -16 C 18.28125 -14.96875 18.796875 -13.710938 18.796875 -12.234375 C 18.796875 -10.773438 18.265625 -9.210938 17.203125 -7.546875 C 15.984375 -5.640625 14.582031 -4.203125 13 -3.234375 Z M 8.9375 -16.390625 C 8.425781 -15.128906 7.878906 -13.566406 7.296875 -11.703125 L 6.8125 -10.25 L 7.15625 -10.09375 C 7.15625 -9.875 7.160156 -9.53125 7.171875 -9.0625 C 7.191406 -8.59375 7.25 -8.195312 7.34375 -7.875 C 7.695312 -6.875 8.097656 -6.265625 8.546875 -6.046875 C 8.742188 -5.941406 9.023438 -5.984375 9.390625 -6.171875 C 9.765625 -6.367188 10.097656 -6.597656 10.390625 -6.859375 C 10.835938 -7.242188 11.5625 -8.050781 12.5625 -9.28125 C 13.300781 -10.113281 13.671875 -11.113281 13.671875 -12.28125 C 13.671875 -13.28125 13.390625 -14.179688 12.828125 -14.984375 C 12.265625 -15.785156 11.484375 -16.332031 10.484375 -16.625 C 10.390625 -16.65625 10.210938 -16.671875 9.953125 -16.671875 C 9.335938 -16.671875 9 -16.578125 8.9375 -16.390625 Z M 8.9375 -16.390625 "/></g></g></g><g fill="#bf5283" fill-opacity="1"><g transform="translate(192.294114, 221.891107)"><g><path d="M 14.0625 -3.859375 C 13.09375 -2.828125 12.046875 -2.3125 10.921875 -2.3125 C 9.984375 -2.3125 9 -2.617188 7.96875 -3.234375 L 7.828125 1.15625 C 7.671875 4.382812 7.59375 7.1875 7.59375 9.5625 C 7.59375 10.019531 7.625 10.734375 7.6875 11.703125 C 7.75 12.660156 7.78125 13.367188 7.78125 13.828125 C 7.78125 14.304688 7.765625 14.660156 7.734375 14.890625 C 7.703125 15.171875 7.507812 15.476562 7.15625 15.8125 C 6.800781 16.15625 6.445312 16.378906 6.09375 16.484375 C 5.832031 16.546875 5.65625 16.578125 5.5625 16.578125 C 4.820312 16.578125 4.101562 16.253906 3.40625 15.609375 C 2.71875 14.960938 2.390625 14.285156 2.421875 13.578125 C 2.484375 11.160156 2.609375 7.664062 2.796875 3.09375 L 3.140625 -7.4375 C 3.203125 -9.375 3.085938 -11.003906 2.796875 -12.328125 C 2.734375 -12.710938 2.703125 -12.96875 2.703125 -13.09375 C 2.703125 -13.613281 2.851562 -14.015625 3.15625 -14.296875 C 3.46875 -14.585938 3.878906 -14.769531 4.390625 -14.84375 C 5.203125 -14.90625 5.847656 -15.117188 6.328125 -15.484375 C 6.816406 -15.859375 7.378906 -16.445312 8.015625 -17.25 C 9.179688 -18.695312 10.457031 -19.421875 11.84375 -19.421875 C 13.382812 -19.421875 15.140625 -18.472656 17.109375 -16.578125 C 18.015625 -15.703125 18.46875 -14.523438 18.46875 -13.046875 C 18.46875 -12.503906 18.414062 -11.957031 18.3125 -11.40625 C 18.09375 -10.050781 17.617188 -8.789062 16.890625 -7.625 C 16.160156 -6.46875 15.21875 -5.210938 14.0625 -3.859375 Z M 9.5625 -11.9375 C 8.851562 -10 8.5 -8.273438 8.5 -6.765625 C 8.5 -6.410156 8.515625 -6.15625 8.546875 -6 L 9.140625 -5.703125 C 9.773438 -5.898438 10.445312 -6.460938 11.15625 -7.390625 C 11.875 -8.328125 12.460938 -9.382812 12.921875 -10.5625 C 13.390625 -11.738281 13.625 -12.773438 13.625 -13.671875 C 13.625 -14.054688 13.546875 -14.445312 13.390625 -14.84375 C 13.160156 -15.257812 12.820312 -15.46875 12.375 -15.46875 C 11.789062 -15.46875 11.367188 -15.257812 11.109375 -14.84375 C 11.015625 -14.707031 10.789062 -14.347656 10.4375 -13.765625 C 10.082031 -13.191406 9.789062 -12.582031 9.5625 -11.9375 Z M 9.5625 -11.9375 "/></g></g></g><g fill="#bf5283" fill-opacity="1"><g transform="translate(211.721639, 221.891107)"><g><path d="M 11.21875 -7.546875 C 10.894531 -7.347656 10.425781 -7.25 9.8125 -7.25 C 9.582031 -7.25 9.304688 -7.265625 8.984375 -7.296875 C 8.660156 -7.328125 8.390625 -7.328125 8.171875 -7.296875 C 8.421875 -6.234375 9.03125 -5.367188 10 -4.703125 C 10.96875 -4.046875 12.046875 -3.71875 13.234375 -3.71875 C 14.265625 -3.71875 15.1875 -3.941406 16 -4.390625 C 17.1875 -5.003906 18.21875 -5.734375 19.09375 -6.578125 C 19.707031 -7.179688 20.285156 -7.484375 20.828125 -7.484375 C 21.179688 -7.484375 21.488281 -7.304688 21.75 -6.953125 C 22.007812 -6.535156 22.140625 -6.019531 22.140625 -5.40625 C 22.140625 -4.769531 22.007812 -4.273438 21.75 -3.921875 C 20.90625 -2.628906 19.816406 -1.738281 18.484375 -1.25 C 17.148438 -0.769531 15.597656 -0.53125 13.828125 -0.53125 C 11.984375 -0.53125 10.207031 -0.929688 8.5 -1.734375 C 6.789062 -2.546875 5.332031 -3.648438 4.125 -5.046875 C 2.914062 -6.453125 2.117188 -8.007812 1.734375 -9.71875 C 1.484375 -10.71875 1.359375 -11.695312 1.359375 -12.65625 C 1.359375 -14.175781 1.785156 -15.398438 2.640625 -16.328125 C 3.492188 -17.265625 4.867188 -18.15625 6.765625 -19 C 8.503906 -19.738281 10.113281 -20.109375 11.59375 -20.109375 C 12.65625 -20.109375 13.6875 -19.945312 14.6875 -19.625 C 17.78125 -18.65625 19.328125 -17.332031 19.328125 -15.65625 C 19.328125 -14.59375 18.703125 -13.304688 17.453125 -11.796875 C 16.835938 -11.085938 16.109375 -10.457031 15.265625 -9.90625 C 14.429688 -9.351562 13.617188 -8.859375 12.828125 -8.421875 C 12.035156 -7.992188 11.5 -7.703125 11.21875 -7.546875 Z M 13.234375 -16.484375 C 13.203125 -16.640625 13.082031 -16.773438 12.875 -16.890625 C 12.664062 -17.003906 12.546875 -17.078125 12.515625 -17.109375 C 11.648438 -17.171875 10.765625 -16.921875 9.859375 -16.359375 C 8.953125 -15.796875 8.203125 -15.078125 7.609375 -14.203125 C 7.015625 -13.335938 6.71875 -12.503906 6.71875 -11.703125 L 6.765625 -11.3125 C 6.796875 -11.175781 6.960938 -11.007812 7.265625 -10.8125 C 7.578125 -10.625 7.765625 -10.5625 7.828125 -10.625 C 10.117188 -12.332031 11.84375 -13.703125 13 -14.734375 C 13.195312 -14.929688 13.296875 -15.285156 13.296875 -15.796875 C 13.296875 -16.117188 13.273438 -16.347656 13.234375 -16.484375 Z M 13.234375 -16.484375 "/></g></g></g><g fill="#104d7d" fill-opacity="1"><g transform="translate(213.102399, 237.804023)"><g><path d="M 6.75 0 L 5.703125 0 C 5.515625 0 5.390625 -0.03125 5.328125 -0.09375 C 5.273438 -0.164062 5.25 -0.238281 5.25 -0.3125 C 5.25 -0.394531 5.25 -0.457031 5.25 -0.5 L 5.34375 -1.171875 L 5.328125 -1.171875 C 5.148438 -0.835938 4.867188 -0.546875 4.484375 -0.296875 C 4.097656 -0.046875 3.648438 0.078125 3.140625 0.078125 C 2.441406 0.078125 1.882812 -0.148438 1.46875 -0.609375 C 1.050781 -1.078125 0.84375 -1.703125 0.84375 -2.484375 C 0.84375 -3.492188 1.144531 -4.328125 1.75 -4.984375 C 2.351562 -5.648438 3.109375 -5.984375 4.015625 -5.984375 C 4.503906 -5.984375 4.898438 -5.867188 5.203125 -5.640625 C 5.503906 -5.410156 5.703125 -5.132812 5.796875 -4.8125 L 5.8125 -4.8125 C 5.8125 -4.96875 5.820312 -5.097656 5.84375 -5.203125 L 6.21875 -7.8125 L 5.546875 -7.8125 C 5.453125 -7.8125 5.40625 -7.859375 5.40625 -7.953125 L 5.484375 -8.46875 C 5.492188 -8.5625 5.550781 -8.609375 5.65625 -8.609375 L 7.140625 -8.609375 C 7.242188 -8.609375 7.285156 -8.5625 7.265625 -8.46875 L 6.1875 -0.796875 L 6.859375 -0.796875 C 6.960938 -0.796875 7.007812 -0.75 7 -0.65625 L 6.90625 -0.140625 C 6.894531 -0.046875 6.84375 0 6.75 0 Z M 3.40625 -0.75 C 4.007812 -0.75 4.519531 -0.988281 4.9375 -1.46875 C 5.363281 -1.957031 5.578125 -2.578125 5.578125 -3.328125 C 5.578125 -3.890625 5.429688 -4.332031 5.140625 -4.65625 C 4.847656 -4.976562 4.472656 -5.140625 4.015625 -5.140625 C 3.421875 -5.140625 2.910156 -4.90625 2.484375 -4.4375 C 2.054688 -3.976562 1.84375 -3.367188 1.84375 -2.609375 C 1.84375 -2.054688 1.984375 -1.609375 2.265625 -1.265625 C 2.554688 -0.921875 2.9375 -0.75 3.40625 -0.75 Z M 3.40625 -0.75 "/></g></g></g><g fill="#104d7d" fill-opacity="1"><g transform="translate(221.418421, 237.804023)"><g><path d="M 6.34375 0 L 5.296875 0 C 4.992188 0 4.84375 -0.125 4.84375 -0.375 C 4.84375 -0.414062 4.847656 -0.457031 4.859375 -0.5 L 4.9375 -1.109375 L 4.921875 -1.109375 C 4.242188 -0.304688 3.40625 0.09375 2.40625 0.09375 C 1.882812 0.09375 1.460938 -0.0351562 1.140625 -0.296875 C 0.816406 -0.566406 0.65625 -0.925781 0.65625 -1.375 C 0.65625 -2.09375 0.96875 -2.625 1.59375 -2.96875 C 2.226562 -3.3125 3.082031 -3.484375 4.15625 -3.484375 L 5.171875 -3.484375 L 5.203125 -3.625 C 5.222656 -3.75 5.234375 -3.875 5.234375 -4 C 5.234375 -4.75 4.769531 -5.125 3.84375 -5.125 C 3.351562 -5.125 2.992188 -5.078125 2.765625 -4.984375 C 2.535156 -4.890625 2.367188 -4.816406 2.265625 -4.765625 C 2.171875 -4.710938 2.097656 -4.664062 2.046875 -4.625 C 1.992188 -4.59375 1.960938 -4.578125 1.953125 -4.578125 C 1.867188 -4.546875 1.8125 -4.554688 1.78125 -4.609375 L 1.5 -5.03125 C 1.457031 -5.09375 1.472656 -5.15625 1.546875 -5.21875 C 1.617188 -5.289062 1.71875 -5.375 1.84375 -5.46875 C 1.976562 -5.5625 2.25 -5.671875 2.65625 -5.796875 C 3.070312 -5.921875 3.519531 -5.984375 4 -5.984375 C 5.488281 -5.984375 6.234375 -5.363281 6.234375 -4.125 C 6.234375 -3.957031 6.21875 -3.78125 6.1875 -3.59375 L 5.78125 -0.796875 L 6.46875 -0.796875 C 6.550781 -0.796875 6.59375 -0.75 6.59375 -0.65625 L 6.515625 -0.140625 C 6.503906 -0.046875 6.445312 0 6.34375 0 Z M 4.109375 -2.765625 C 3.378906 -2.765625 2.859375 -2.707031 2.546875 -2.59375 C 2.234375 -2.488281 2.015625 -2.359375 1.890625 -2.203125 C 1.773438 -2.046875 1.71875 -1.84375 1.71875 -1.59375 C 1.71875 -1.351562 1.816406 -1.148438 2.015625 -0.984375 C 2.210938 -0.828125 2.484375 -0.75 2.828125 -0.75 C 3.617188 -0.75 4.320312 -1.09375 4.9375 -1.78125 L 5.0625 -2.765625 Z M 4.109375 -2.765625 "/></g></g></g><g fill="#104d7d" fill-opacity="1"><g transform="translate(229.350437, 237.804023)"><g><path d="M 3.21875 0.078125 C 2.601562 0.078125 2.15625 -0.09375 1.875 -0.4375 C 1.644531 -0.695312 1.53125 -1.046875 1.53125 -1.484375 C 1.53125 -1.628906 1.546875 -1.785156 1.578125 -1.953125 L 2.015625 -5.09375 L 1.328125 -5.09375 C 1.210938 -5.09375 1.164062 -5.144531 1.1875 -5.25 L 1.265625 -5.75 C 1.273438 -5.851562 1.335938 -5.90625 1.453125 -5.90625 L 2.125 -5.90625 L 2.296875 -7.109375 C 2.304688 -7.222656 2.367188 -7.28125 2.484375 -7.28125 L 3.15625 -7.28125 C 3.269531 -7.28125 3.316406 -7.222656 3.296875 -7.109375 L 3.125 -5.90625 L 4.640625 -5.90625 C 4.734375 -5.90625 4.78125 -5.867188 4.78125 -5.796875 C 4.78125 -5.773438 4.78125 -5.757812 4.78125 -5.75 L 4.71875 -5.25 C 4.695312 -5.144531 4.632812 -5.09375 4.53125 -5.09375 L 3.015625 -5.09375 L 2.578125 -1.984375 C 2.566406 -1.859375 2.5625 -1.742188 2.5625 -1.640625 C 2.5625 -1.054688 2.847656 -0.765625 3.421875 -0.765625 C 3.671875 -0.765625 3.898438 -0.847656 4.109375 -1.015625 C 4.210938 -1.046875 4.28125 -1.035156 4.3125 -0.984375 L 4.5625 -0.609375 C 4.601562 -0.535156 4.578125 -0.460938 4.484375 -0.390625 C 4.097656 -0.078125 3.675781 0.078125 3.21875 0.078125 Z M 3.21875 0.078125 "/></g></g></g><g fill="#104d7d" fill-opacity="1"><g transform="translate(235.134454, 237.804023)"><g><path d="M 2.90625 0 L 0.609375 0 C 0.503906 0 0.460938 -0.046875 0.484375 -0.140625 L 0.5625 -0.65625 C 0.570312 -0.75 0.625 -0.796875 0.71875 -0.796875 L 1.390625 -0.796875 L 2 -5.09375 L 1.328125 -5.09375 C 1.222656 -5.09375 1.179688 -5.144531 1.203125 -5.25 L 1.265625 -5.765625 C 1.285156 -5.859375 1.34375 -5.90625 1.4375 -5.90625 L 2.953125 -5.90625 C 3.046875 -5.90625 3.085938 -5.859375 3.078125 -5.765625 L 2.390625 -0.796875 L 3.03125 -0.796875 C 3.125 -0.796875 3.164062 -0.75 3.15625 -0.65625 L 3.078125 -0.140625 C 3.078125 -0.046875 3.019531 0 2.90625 0 Z M 2.84375 -7.890625 C 3.03125 -7.890625 3.175781 -7.828125 3.28125 -7.703125 C 3.394531 -7.585938 3.453125 -7.4375 3.453125 -7.25 C 3.453125 -7.070312 3.367188 -6.910156 3.203125 -6.765625 C 3.046875 -6.617188 2.875 -6.546875 2.6875 -6.546875 C 2.507812 -6.546875 2.363281 -6.597656 2.25 -6.703125 C 2.144531 -6.816406 2.09375 -6.960938 2.09375 -7.140625 C 2.09375 -7.328125 2.171875 -7.5 2.328125 -7.65625 C 2.484375 -7.8125 2.65625 -7.890625 2.84375 -7.890625 Z M 2.84375 -7.890625 "/></g></g></g><g fill="#104d7d" fill-opacity="1"><g transform="translate(239.622463, 237.804023)"><g><path d="M 6.84375 0 L 5.703125 0 C 5.398438 0 5.25 -0.125 5.25 -0.375 C 5.25 -0.414062 5.25 -0.457031 5.25 -0.5 L 5.6875 -3.65625 C 5.707031 -3.78125 5.71875 -3.894531 5.71875 -4 C 5.71875 -4.289062 5.648438 -4.535156 5.515625 -4.734375 C 5.328125 -4.992188 5.03125 -5.125 4.625 -5.125 C 4.351562 -5.125 4.09375 -5.039062 3.84375 -4.875 C 3.601562 -4.707031 3.40625 -4.503906 3.25 -4.265625 C 3.007812 -3.910156 2.835938 -3.597656 2.734375 -3.328125 L 2.390625 -0.796875 L 3.03125 -0.796875 C 3.125 -0.796875 3.164062 -0.75 3.15625 -0.65625 L 3.078125 -0.140625 C 3.078125 -0.046875 3.019531 0 2.90625 0 L 0.609375 0 C 0.503906 0 0.460938 -0.046875 0.484375 -0.140625 L 0.5625 -0.65625 C 0.570312 -0.75 0.625 -0.796875 0.71875 -0.796875 L 1.390625 -0.796875 L 2 -5.09375 L 1.328125 -5.09375 C 1.222656 -5.09375 1.179688 -5.144531 1.203125 -5.25 L 1.265625 -5.765625 C 1.285156 -5.859375 1.34375 -5.90625 1.4375 -5.90625 L 2.859375 -5.90625 C 2.953125 -5.90625 2.988281 -5.859375 2.96875 -5.765625 L 2.765625 -4.3125 L 2.796875 -4.3125 C 2.804688 -4.425781 2.878906 -4.597656 3.015625 -4.828125 C 3.160156 -5.066406 3.304688 -5.257812 3.453125 -5.40625 C 3.597656 -5.550781 3.800781 -5.679688 4.0625 -5.796875 C 4.332031 -5.921875 4.632812 -5.984375 4.96875 -5.984375 C 5.601562 -5.984375 6.078125 -5.796875 6.390625 -5.421875 C 6.628906 -5.128906 6.75 -4.757812 6.75 -4.3125 C 6.75 -4.175781 6.738281 -4.039062 6.71875 -3.90625 L 6.28125 -0.796875 L 6.953125 -0.796875 C 7.054688 -0.796875 7.101562 -0.75 7.09375 -0.65625 L 7.015625 -0.140625 C 7.015625 -0.046875 6.957031 0 6.84375 0 Z M 6.84375 0 "/></g></g></g><g fill="#104d7d" fill-opacity="1"><g transform="translate(248.046484, 237.804023)"><g><path d="M 2.8125 2.8125 C 2.425781 2.8125 2.128906 2.78125 1.921875 2.71875 C 1.722656 2.664062 1.5625 2.617188 1.4375 2.578125 C 1.320312 2.535156 1.226562 2.488281 1.15625 2.4375 C 1.082031 2.394531 1.007812 2.347656 0.9375 2.296875 C 0.675781 2.117188 0.546875 1.984375 0.546875 1.890625 C 0.546875 1.859375 0.5625 1.828125 0.59375 1.796875 L 0.96875 1.359375 C 1.03125 1.285156 1.097656 1.28125 1.171875 1.34375 C 1.421875 1.539062 1.601562 1.660156 1.71875 1.703125 C 1.84375 1.753906 1.960938 1.800781 2.078125 1.84375 C 2.328125 1.90625 2.609375 1.9375 2.921875 1.9375 C 3.503906 1.9375 3.984375 1.796875 4.359375 1.515625 C 4.742188 1.242188 4.984375 0.816406 5.078125 0.234375 L 5.265625 -1.078125 C 5.066406 -0.753906 4.785156 -0.476562 4.421875 -0.25 C 4.066406 -0.03125 3.640625 0.078125 3.140625 0.078125 C 2.421875 0.078125 1.851562 -0.15625 1.4375 -0.625 C 1.03125 -1.09375 0.828125 -1.710938 0.828125 -2.484375 C 0.828125 -3.515625 1.128906 -4.351562 1.734375 -5 C 2.335938 -5.65625 3.09375 -5.984375 4 -5.984375 C 4.488281 -5.984375 4.882812 -5.867188 5.1875 -5.640625 C 5.5 -5.410156 5.710938 -5.132812 5.828125 -4.8125 L 5.859375 -4.8125 L 5.96875 -5.765625 C 5.988281 -5.859375 6.039062 -5.90625 6.125 -5.90625 L 7.546875 -5.90625 C 7.648438 -5.90625 7.695312 -5.859375 7.6875 -5.765625 L 7.609375 -5.25 C 7.585938 -5.144531 7.523438 -5.09375 7.421875 -5.09375 L 6.78125 -5.09375 L 6.03125 0.234375 C 5.914062 1.085938 5.566406 1.726562 4.984375 2.15625 C 4.398438 2.59375 3.675781 2.8125 2.8125 2.8125 Z M 1.828125 -2.59375 C 1.828125 -2.039062 1.972656 -1.59375 2.265625 -1.25 C 2.554688 -0.914062 2.960938 -0.75 3.484375 -0.75 C 4.015625 -0.75 4.492188 -0.992188 4.921875 -1.484375 C 5.359375 -1.984375 5.578125 -2.597656 5.578125 -3.328125 C 5.578125 -3.878906 5.429688 -4.316406 5.140625 -4.640625 C 4.847656 -4.972656 4.472656 -5.140625 4.015625 -5.140625 C 3.410156 -5.140625 2.894531 -4.898438 2.46875 -4.421875 C 2.039062 -3.953125 1.828125 -3.34375 1.828125 -2.59375 Z M 1.828125 -2.59375 "/></g></g></g><g fill="#104d7d" fill-opacity="1"><g transform="translate(256.350503, 237.804023)"><g/></g></g><g fill="#104d7d" fill-opacity="1"><g transform="translate(261.078517, 237.804023)"><g><path d="M 6.34375 0 L 5.296875 0 C 4.992188 0 4.84375 -0.125 4.84375 -0.375 C 4.84375 -0.414062 4.847656 -0.457031 4.859375 -0.5 L 4.9375 -1.109375 L 4.921875 -1.109375 C 4.242188 -0.304688 3.40625 0.09375 2.40625 0.09375 C 1.882812 0.09375 1.460938 -0.0351562 1.140625 -0.296875 C 0.816406 -0.566406 0.65625 -0.925781 0.65625 -1.375 C 0.65625 -2.09375 0.96875 -2.625 1.59375 -2.96875 C 2.226562 -3.3125 3.082031 -3.484375 4.15625 -3.484375 L 5.171875 -3.484375 L 5.203125 -3.625 C 5.222656 -3.75 5.234375 -3.875 5.234375 -4 C 5.234375 -4.75 4.769531 -5.125 3.84375 -5.125 C 3.351562 -5.125 2.992188 -5.078125 2.765625 -4.984375 C 2.535156 -4.890625 2.367188 -4.816406 2.265625 -4.765625 C 2.171875 -4.710938 2.097656 -4.664062 2.046875 -4.625 C 1.992188 -4.59375 1.960938 -4.578125 1.953125 -4.578125 C 1.867188 -4.546875 1.8125 -4.554688 1.78125 -4.609375 L 1.5 -5.03125 C 1.457031 -5.09375 1.472656 -5.15625 1.546875 -5.21875 C 1.617188 -5.289062 1.71875 -5.375 1.84375 -5.46875 C 1.976562 -5.5625 2.25 -5.671875 2.65625 -5.796875 C 3.070312 -5.921875 3.519531 -5.984375 4 -5.984375 C 5.488281 -5.984375 6.234375 -5.363281 6.234375 -4.125 C 6.234375 -3.957031 6.21875 -3.78125 6.1875 -3.59375 L 5.78125 -0.796875 L 6.46875 -0.796875 C 6.550781 -0.796875 6.59375 -0.75 6.59375 -0.65625 L 6.515625 -0.140625 C 6.503906 -0.046875 6.445312 0 6.34375 0 Z M 4.109375 -2.765625 C 3.378906 -2.765625 2.859375 -2.707031 2.546875 -2.59375 C 2.234375 -2.488281 2.015625 -2.359375 1.890625 -2.203125 C 1.773438 -2.046875 1.71875 -1.84375 1.71875 -1.59375 C 1.71875 -1.351562 1.816406 -1.148438 2.015625 -0.984375 C 2.210938 -0.828125 2.484375 -0.75 2.828125 -0.75 C 3.617188 -0.75 4.320312 -1.09375 4.9375 -1.78125 L 5.0625 -2.765625 Z M 4.109375 -2.765625 "/></g></g></g><g fill="#104d7d" fill-opacity="1"><g transform="translate(269.010531, 237.804023)"><g><path d="M 2.8125 2.8125 C 2.425781 2.8125 2.128906 2.78125 1.921875 2.71875 C 1.722656 2.664062 1.5625 2.617188 1.4375 2.578125 C 1.320312 2.535156 1.226562 2.488281 1.15625 2.4375 C 1.082031 2.394531 1.007812 2.347656 0.9375 2.296875 C 0.675781 2.117188 0.546875 1.984375 0.546875 1.890625 C 0.546875 1.859375 0.5625 1.828125 0.59375 1.796875 L 0.96875 1.359375 C 1.03125 1.285156 1.097656 1.28125 1.171875 1.34375 C 1.421875 1.539062 1.601562 1.660156 1.71875 1.703125 C 1.84375 1.753906 1.960938 1.800781 2.078125 1.84375 C 2.328125 1.90625 2.609375 1.9375 2.921875 1.9375 C 3.503906 1.9375 3.984375 1.796875 4.359375 1.515625 C 4.742188 1.242188 4.984375 0.816406 5.078125 0.234375 L 5.265625 -1.078125 C 5.066406 -0.753906 4.785156 -0.476562 4.421875 -0.25 C 4.066406 -0.03125 3.640625 0.078125 3.140625 0.078125 C 2.421875 0.078125 1.851562 -0.15625 1.4375 -0.625 C 1.03125 -1.09375 0.828125 -1.710938 0.828125 -2.484375 C 0.828125 -3.515625 1.128906 -4.351562 1.734375 -5 C 2.335938 -5.65625 3.09375 -5.984375 4 -5.984375 C 4.488281 -5.984375 4.882812 -5.867188 5.1875 -5.640625 C 5.5 -5.410156 5.710938 -5.132812 5.828125 -4.8125 L 5.859375 -4.8125 L 5.96875 -5.765625 C 5.988281 -5.859375 6.039062 -5.90625 6.125 -5.90625 L 7.546875 -5.90625 C 7.648438 -5.90625 7.695312 -5.859375 7.6875 -5.765625 L 7.609375 -5.25 C 7.585938 -5.144531 7.523438 -5.09375 7.421875 -5.09375 L 6.78125 -5.09375 L 6.03125 0.234375 C 5.914062 1.085938 5.566406 1.726562 4.984375 2.15625 C 4.398438 2.59375 3.675781 2.8125 2.8125 2.8125 Z M 1.828125 -2.59375 C 1.828125 -2.039062 1.972656 -1.59375 2.265625 -1.25 C 2.554688 -0.914062 2.960938 -0.75 3.484375 -0.75 C 4.015625 -0.75 4.492188 -0.992188 4.921875 -1.484375 C 5.359375 -1.984375 5.578125 -2.597656 5.578125 -3.328125 C 5.578125 -3.878906 5.429688 -4.316406 5.140625 -4.640625 C 4.847656 -4.972656 4.472656 -5.140625 4.015625 -5.140625 C 3.410156 -5.140625 2.894531 -4.898438 2.46875 -4.421875 C 2.039062 -3.953125 1.828125 -3.34375 1.828125 -2.59375 Z M 1.828125 -2.59375 "/></g></g></g><g fill="#104d7d" fill-opacity="1"><g transform="translate(277.314547, 237.804023)"><g><path d="M 6.203125 -2.828125 L 1.890625 -2.828125 C 1.878906 -2.722656 1.875 -2.617188 1.875 -2.515625 C 1.875 -2.003906 2.023438 -1.582031 2.328125 -1.25 C 2.640625 -0.914062 3.039062 -0.75 3.53125 -0.75 C 4.019531 -0.75 4.445312 -0.851562 4.8125 -1.0625 C 5.1875 -1.269531 5.453125 -1.476562 5.609375 -1.6875 C 5.679688 -1.757812 5.753906 -1.769531 5.828125 -1.71875 L 6.125 -1.390625 C 6.195312 -1.316406 6.195312 -1.238281 6.125 -1.15625 C 6.0625 -1.082031 5.960938 -0.984375 5.828125 -0.859375 C 5.703125 -0.742188 5.523438 -0.609375 5.296875 -0.453125 C 4.753906 -0.0976562 4.113281 0.078125 3.375 0.078125 C 2.644531 0.078125 2.039062 -0.15625 1.5625 -0.625 C 1.082031 -1.09375 0.84375 -1.703125 0.84375 -2.453125 C 0.84375 -3.210938 1.007812 -3.859375 1.34375 -4.390625 C 1.675781 -4.929688 2.085938 -5.332031 2.578125 -5.59375 C 3.078125 -5.851562 3.597656 -5.984375 4.140625 -5.984375 C 4.867188 -5.984375 5.429688 -5.769531 5.828125 -5.34375 C 6.234375 -4.914062 6.4375 -4.320312 6.4375 -3.5625 C 6.4375 -3.070312 6.359375 -2.828125 6.203125 -2.828125 Z M 5.5 -3.765625 C 5.5 -4.171875 5.378906 -4.507812 5.140625 -4.78125 C 4.910156 -5.0625 4.554688 -5.203125 4.078125 -5.203125 C 3.597656 -5.203125 3.164062 -5.0625 2.78125 -4.78125 C 2.40625 -4.507812 2.144531 -4.101562 2 -3.5625 L 5.484375 -3.5625 C 5.492188 -3.632812 5.5 -3.703125 5.5 -3.765625 Z M 5.5 -3.765625 "/></g></g></g><g fill="#104d7d" fill-opacity="1"><g transform="translate(284.742563, 237.804023)"><g><path d="M 6.84375 0 L 5.703125 0 C 5.398438 0 5.25 -0.125 5.25 -0.375 C 5.25 -0.414062 5.25 -0.457031 5.25 -0.5 L 5.6875 -3.65625 C 5.707031 -3.78125 5.71875 -3.894531 5.71875 -4 C 5.71875 -4.289062 5.648438 -4.535156 5.515625 -4.734375 C 5.328125 -4.992188 5.03125 -5.125 4.625 -5.125 C 4.351562 -5.125 4.09375 -5.039062 3.84375 -4.875 C 3.601562 -4.707031 3.40625 -4.503906 3.25 -4.265625 C 3.007812 -3.910156 2.835938 -3.597656 2.734375 -3.328125 L 2.390625 -0.796875 L 3.03125 -0.796875 C 3.125 -0.796875 3.164062 -0.75 3.15625 -0.65625 L 3.078125 -0.140625 C 3.078125 -0.046875 3.019531 0 2.90625 0 L 0.609375 0 C 0.503906 0 0.460938 -0.046875 0.484375 -0.140625 L 0.5625 -0.65625 C 0.570312 -0.75 0.625 -0.796875 0.71875 -0.796875 L 1.390625 -0.796875 L 2 -5.09375 L 1.328125 -5.09375 C 1.222656 -5.09375 1.179688 -5.144531 1.203125 -5.25 L 1.265625 -5.765625 C 1.285156 -5.859375 1.34375 -5.90625 1.4375 -5.90625 L 2.859375 -5.90625 C 2.953125 -5.90625 2.988281 -5.859375 2.96875 -5.765625 L 2.765625 -4.3125 L 2.796875 -4.3125 C 2.804688 -4.425781 2.878906 -4.597656 3.015625 -4.828125 C 3.160156 -5.066406 3.304688 -5.257812 3.453125 -5.40625 C 3.597656 -5.550781 3.800781 -5.679688 4.0625 -5.796875 C 4.332031 -5.921875 4.632812 -5.984375 4.96875 -5.984375 C 5.601562 -5.984375 6.078125 -5.796875 6.390625 -5.421875 C 6.628906 -5.128906 6.75 -4.757812 6.75 -4.3125 C 6.75 -4.175781 6.738281 -4.039062 6.71875 -3.90625 L 6.28125 -0.796875 L 6.953125 -0.796875 C 7.054688 -0.796875 7.101562 -0.75 7.09375 -0.65625 L 7.015625 -0.140625 C 7.015625 -0.046875 6.957031 0 6.84375 0 Z M 6.84375 0 "/></g></g></g><g fill="#104d7d" fill-opacity="1"><g transform="translate(293.166581, 237.804023)"><g><path d="M 3.40625 0.078125 C 2.644531 0.078125 2.023438 -0.148438 1.546875 -0.609375 C 1.078125 -1.078125 0.84375 -1.71875 0.84375 -2.53125 C 0.84375 -3.582031 1.175781 -4.421875 1.84375 -5.046875 C 2.519531 -5.671875 3.285156 -5.984375 4.140625 -5.984375 C 5.003906 -5.984375 5.601562 -5.6875 5.9375 -5.09375 L 5.953125 -5.09375 L 6.03125 -5.765625 C 6.050781 -5.867188 6.109375 -5.921875 6.203125 -5.921875 L 6.65625 -5.921875 C 6.757812 -5.921875 6.804688 -5.867188 6.796875 -5.765625 L 6.5 -3.71875 C 6.488281 -3.625 6.4375 -3.578125 6.34375 -3.578125 L 5.796875 -3.578125 C 5.691406 -3.578125 5.644531 -3.625 5.65625 -3.71875 L 5.6875 -3.921875 C 5.695312 -3.953125 5.703125 -3.988281 5.703125 -4.03125 C 5.703125 -4.28125 5.566406 -4.523438 5.296875 -4.765625 C 5.023438 -5.015625 4.628906 -5.140625 4.109375 -5.140625 C 3.585938 -5.140625 3.082031 -4.914062 2.59375 -4.46875 C 2.101562 -4.019531 1.859375 -3.414062 1.859375 -2.65625 C 1.859375 -2.070312 2.023438 -1.609375 2.359375 -1.265625 C 2.703125 -0.921875 3.097656 -0.75 3.546875 -0.75 C 3.992188 -0.75 4.414062 -0.859375 4.8125 -1.078125 C 5.207031 -1.304688 5.472656 -1.507812 5.609375 -1.6875 C 5.679688 -1.78125 5.753906 -1.796875 5.828125 -1.734375 L 6.125 -1.390625 C 6.195312 -1.316406 6.195312 -1.238281 6.125 -1.15625 C 6.0625 -1.070312 5.96875 -0.972656 5.84375 -0.859375 C 5.71875 -0.742188 5.546875 -0.609375 5.328125 -0.453125 C 4.816406 -0.0976562 4.175781 0.078125 3.40625 0.078125 Z M 3.40625 0.078125 "/></g></g></g><g fill="#104d7d" fill-opacity="1"><g transform="translate(300.606602, 237.804023)"><g><path d="M 3.15625 -0.125 C 3.070312 -0.125 3.007812 -0.144531 2.96875 -0.1875 C 2.9375 -0.238281 2.90625 -0.320312 2.875 -0.4375 L 1.703125 -5.09375 L 1.046875 -5.09375 C 0.941406 -5.09375 0.894531 -5.144531 0.90625 -5.25 L 0.984375 -5.765625 C 1.003906 -5.859375 1.0625 -5.90625 1.15625 -5.90625 L 3.328125 -5.90625 C 3.429688 -5.90625 3.46875 -5.859375 3.4375 -5.765625 L 3.390625 -5.25 C 3.367188 -5.144531 3.304688 -5.09375 3.203125 -5.09375 L 2.71875 -5.09375 L 3.703125 -1.03125 L 3.71875 -1.03125 L 5.71875 -5.09375 L 5.1875 -5.09375 C 5.09375 -5.09375 5.050781 -5.144531 5.0625 -5.25 L 5.140625 -5.765625 C 5.148438 -5.859375 5.203125 -5.90625 5.296875 -5.90625 L 7.53125 -5.90625 C 7.632812 -5.90625 7.675781 -5.859375 7.65625 -5.765625 L 7.59375 -5.25 C 7.582031 -5.144531 7.523438 -5.09375 7.421875 -5.09375 L 6.75 -5.09375 L 3.78125 0.765625 C 3.414062 1.484375 3.066406 2.003906 2.734375 2.328125 C 2.410156 2.648438 1.992188 2.8125 1.484375 2.8125 C 0.984375 2.8125 0.597656 2.65625 0.328125 2.34375 C 0.285156 2.300781 0.265625 2.257812 0.265625 2.21875 C 0.265625 2.1875 0.28125 2.15625 0.3125 2.125 L 0.671875 1.734375 C 0.722656 1.691406 0.789062 1.6875 0.875 1.71875 C 1.070312 1.875 1.296875 1.953125 1.546875 1.953125 C 1.804688 1.953125 2.03125 1.863281 2.21875 1.6875 C 2.414062 1.507812 2.628906 1.195312 2.859375 0.75 L 3.296875 -0.125 Z M 3.15625 -0.125 "/></g></g></g></svg>